<svg xmlns="http://www.w3.org/2000/svg" viewBox="0 0 512 512"><g id="Livello_8" data-name="Livello 8"><path d="M419.63,146.92A23.27,23.27,0,0,1,443,170.29v77.92a23.29,23.29,0,0,1-23.37,23.37h-7.8A156,156,0,0,1,346.58,398.2a156.92,156.92,0,0,1-67.2,27.27v79.86H232.62V425.47a156.92,156.92,0,0,1-67.2-27.27,156,156,0,0,1-65.25-126.62H92.38A23.29,23.29,0,0,1,69,248.21V170.29a23.27,23.27,0,0,1,23.38-23.37Zm-23.38,77.91V193.67H115.75v31.16h31.17v46.75a109.09,109.09,0,0,0,163.62,94.48,109.1,109.1,0,0,0,54.54-94.48V224.83Zm-257.13-93.5h46.76V30a22.58,22.58,0,0,0-6.82-16.56,23.54,23.54,0,0,0-33.12,0A22.58,22.58,0,0,0,139.12,30Zm187,0h46.75V30a22.58,22.58,0,0,0-6.82-16.56,23.54,23.54,0,0,0-33.12,0A22.57,22.57,0,0,0,326.13,30Z"/></g></svg>