<?xml version="1.0" encoding="UTF-8"?>
<svg width="512px" height="113px" viewBox="0 0 512 113" version="1.1" xmlns="http://www.w3.org/2000/svg" xmlns:xlink="http://www.w3.org/1999/xlink">
    <!-- Generator: Sketch 53.2 (72643) - https://sketchapp.com -->
    <title>cargo-plus</title>
    <desc>Created with Sketch.</desc>
    <g id="assets" stroke="none" stroke-width="1" fill="none" fill-rule="evenodd">
        <g id="Artboard" transform="translate(-310.000000, -1371.000000)" fill="#FEFEFE">
            <path d="M310,1465.51111 L310,1390.07308 C312.930643,1389.18602 332.61634,1388.90363 339.855228,1389.66943 L339.855228,1408.83554 C337.024837,1408.96249 334.216916,1409.08701 331.473813,1409.20989 C330.506726,1412.18682 330.314865,1440.64993 331.279358,1445.70941 C343.770243,1445.87787 356.365701,1445.74196 369.524645,1445.79323 C369.682801,1442.96767 369.829722,1440.3537 369.989607,1437.49885 L390.317435,1437.49885 C391.174763,1440.36428 391.353661,1460.66404 390.530039,1465.51111 L310,1465.51111 Z M369.31983,1371 L390.824389,1371 C391.449266,1377.07188 390.742539,1383.09986 391.267963,1389.508 L410.379509,1389.508 L410.379509,1410.0477 L391.07962,1410.0477 L391.07962,1428.37597 C387.311878,1429.0833 383.82313,1428.68243 380.370466,1428.74951 C376.870277,1428.81826 373.368327,1428.76442 369.464168,1428.76442 C368.731918,1422.57162 369.540737,1416.5337 368.928182,1410.21997 L349.636215,1410.21997 C349.59925,1406.63946 349.551725,1403.38694 349.535002,1400.13441 C349.51828,1396.84793 349.531482,1393.55979 349.531482,1389.90225 C356.03372,1389.28189 362.291288,1389.92378 368.919381,1389.46494 C369.507293,1383.41294 368.878016,1377.39572 369.31983,1371 Z M589.876131,1442.9273 C589.224628,1440.30905 588.911066,1437.55443 587.843442,1435.11445 C586.270587,1431.51775 583.150939,1429.96914 579.079676,1430.06116 C575.118538,1430.15153 572.38727,1431.96302 570.948919,1435.4176 C568.875038,1440.40271 568.778364,1445.5209 570.934628,1450.51834 C572.488988,1454.12161 575.342151,1455.96597 579.46049,1455.9479 C583.542682,1455.92982 586.542117,1454.15858 588.049401,1450.57666 C589.030438,1448.24431 589.264979,1445.61127 589.876131,1442.9273 Z M589.47346,1426.17691 C589.718929,1424.5248 589.929092,1423.11092 590.210709,1421.2222 C591.9601,1421.18195 593.729666,1421.12773 595.500072,1421.10554 C597.151948,1421.08665 598.804663,1421.10226 600.744881,1421.10226 C600.864253,1422.63607 601.035746,1423.81991 601.037427,1425.00458 C601.056762,1437.87401 601.109723,1450.74344 601.00212,1463.61123 C600.979422,1466.4554 600.617943,1469.35215 599.96644,1472.12403 C598.807185,1477.0508 595.433661,1480.29342 590.623468,1481.86914 C583.118994,1484.32719 575.490946,1484.55065 567.937715,1482.03345 C562.048969,1480.07079 559.657322,1477.16829 558.470326,1470.8531 L570.860651,1470.8531 C572.825248,1474.80061 576.698958,1475.30996 580.961049,1474.86962 C585.711556,1474.37833 588.317568,1472.01641 589.101893,1467.43796 C589.286836,1466.36339 589.30449,1465.25759 589.338956,1464.16412 C589.378467,1462.95071 589.348203,1461.73565 589.348203,1460.25934 C588.729486,1460.45815 588.317568,1460.4713 588.098158,1460.67915 C579.851392,1468.45831 566.630506,1466.86288 560.689639,1457.35684 C555.422133,1448.92865 556.314902,1434.53116 562.292757,1426.52689 C568.461439,1418.26959 582.923123,1417.48255 588.188948,1425.33073 C588.38482,1425.62073 588.819435,1425.75711 589.47346,1426.17691 Z M465.859086,1444.33007 L478.025629,1444.33007 C477.937478,1445.51414 478.025629,1446.54325 477.765455,1447.48971 C474.946336,1457.77443 465.414908,1464.95831 453.99123,1465.46929 C437.76632,1466.19563 426.459035,1457.41682 424.09522,1442.47132 C423.108443,1436.22674 423.273619,1430.08706 424.959613,1423.99268 C428.790328,1410.14542 441.08439,1402.79544 456.669136,1404.81154 C463.869271,1405.7429 470.048396,1408.33991 474.358378,1414.04887 C476.689671,1417.13779 478.157427,1420.51676 478.610164,1424.50286 C476.589539,1425.36985 474.460222,1424.88033 472.417346,1424.9598 C470.300011,1425.04324 468.176686,1424.97887 465.966065,1424.97887 C465.427745,1423.84089 464.927082,1422.90874 464.537678,1421.93843 C461.041594,1413.23353 447.360224,1412.49528 441.858064,1419.13481 C440.410848,1420.88231 439.127952,1422.90079 438.404772,1424.98443 C436.169333,1431.42768 436.132532,1438.0394 438.019647,1444.54145 C440.270491,1452.29592 447.8994,1456.54506 455.615603,1454.71969 C459.442895,1453.81455 462.294535,1451.85726 463.91463,1448.46319 C464.542813,1447.14561 465.157302,1445.82247 465.859086,1444.33007 Z M670.238111,1434.66019 C675.381874,1434.66019 680.036089,1434.96126 684.620996,1434.57895 C689.647197,1434.1608 692.61256,1430.79487 692.412529,1426.05341 C692.228291,1421.6871 691.107068,1418.29967 684.695568,1417.55257 C680.137859,1417.02131 675.445041,1417.44903 670.2153,1417.44903 C670.012638,1423.22591 669.93982,1428.80128 670.238111,1434.66019 Z M657.654622,1407.53522 L661.440284,1407.53522 C669.178301,1407.53522 676.917195,1407.52964 684.656089,1407.5408 C685.968569,1407.54318 687.28719,1407.5631 688.593528,1407.66345 C697.801067,1408.37551 703.50895,1413.27626 705.152182,1421.50391 C705.901419,1425.25614 705.621552,1428.9096 704.751244,1432.54394 C703.072042,1439.55696 697.382582,1443.7823 688.689157,1444.33346 C684.327969,1444.60984 679.934319,1444.46488 675.555584,1444.50072 C673.97552,1444.51506 672.395456,1444.50311 670.722395,1444.50311 C669.49677,1448.22348 670.219687,1451.67145 670.093352,1455.05968 C669.964385,1458.46543 670.065277,1461.87676 670.065277,1465.51111 L657.615142,1465.51111 C656.71676,1461.91818 656.721146,1411.12178 657.654622,1407.53522 Z M617.59395,1442.26709 C618.238551,1444.98269 618.564787,1447.62844 619.516382,1450.07336 C621.08109,1454.09318 624.470272,1456.14755 629.203757,1456.2174 C633.969603,1456.28726 637.672776,1454.15272 639.408037,1450.07812 C641.540379,1445.07477 641.486152,1439.98569 639.29521,1434.99743 C637.617674,1431.17446 634.414788,1429.27489 629.842235,1429.12962 C625.090383,1428.97801 621.536771,1430.72993 619.72017,1434.6553 C618.620763,1437.03274 618.282282,1439.69992 617.59395,1442.26709 Z M629.458273,1419.74527 C643.166312,1419.74368 651.31959,1426.34972 653.359221,1438.77276 C653.976708,1442.5338 653.779043,1446.19404 652.677012,1449.73361 C649.199493,1460.9064 641.332218,1466.36222 627.103776,1465.40331 C612.30945,1464.40708 603.261428,1453.25016 605.371904,1439.57847 C605.593185,1438.14486 605.834582,1436.69379 606.288514,1435.31098 C609.466036,1425.63927 616.589003,1419.52618 629.458273,1419.74527 Z M508.4821,1443.5809 C506.46171,1444.11894 505.219545,1444.51126 503.944806,1444.77307 C502.518649,1445.0653 501.043192,1445.16538 499.625838,1445.48484 C497.924133,1445.86915 496.193376,1446.25667 494.597312,1446.89398 C491.868246,1447.98286 490.516037,1450.53533 491.053927,1453.12462 C491.584775,1455.67308 493.494241,1457.15027 496.602736,1457.41609 C503.270463,1457.98695 508.031364,1454.36242 508.466254,1448.32714 C508.570134,1446.89558 508.4821,1445.45202 508.4821,1443.5809 Z M524.005208,1463.54825 C519.947702,1464.481 514.537107,1464.55866 510.048232,1463.89893 C509.620385,1462.64432 509.162606,1461.30483 508.608869,1459.67872 C507.828004,1460.22476 507.236413,1460.56904 506.734617,1460.99899 C502.236058,1464.8549 496.833387,1465.93658 490.857611,1465.37052 C483.934584,1464.71399 479.303094,1460.47776 478.689494,1454.18147 C477.990501,1447.00847 481.933562,1441.62732 489.613684,1439.77383 C493.135941,1438.92354 496.810498,1438.58647 500.425191,1438.06524 C503.170984,1437.67052 505.990726,1437.49358 507.964458,1435.45593 C508.817511,1431.22371 507.58679,1429.58078 503.233488,1429.13482 C502.072314,1429.01633 500.890893,1429.04435 499.718274,1429.03394 C496.3043,1429.00432 493.734575,1430.14924 492.580444,1433.28138 C492.400854,1433.76657 492.08481,1434.20933 491.831271,1434.6729 L480.36655,1434.6729 C480.815525,1429.24691 482.703863,1424.72726 488.103014,1422.44141 C497.471636,1418.47581 506.914207,1418.92017 515.954461,1423.48065 C519.674795,1425.35737 520.656379,1428.79535 520.717122,1432.40947 C520.801636,1437.34386 520.734729,1442.28065 520.748815,1447.21664 C520.756738,1450.01811 520.848294,1452.81957 520.810439,1455.61944 C520.771704,1458.45052 520.695114,1461.2616 524.005208,1463.54825 Z M777.749402,1452.80398 L790.352313,1452.80398 C791.217489,1455.14665 792.1245,1457.48602 795.034233,1458.36483 C798.813593,1459.50596 802.586722,1459.70622 806.358071,1458.42689 C807.994073,1457.87164 809.176124,1456.81077 809.290947,1455.11686 C809.421792,1453.17222 808.124918,1452.00295 806.303775,1451.47996 C802.630337,1450.42489 798.897262,1449.55187 795.206022,1448.5481 C792.512583,1447.81576 789.754166,1447.19347 787.185341,1446.17564 C780.121516,1443.37783 777.467241,1437.14504 780.422369,1430.50843 C782.207018,1426.50163 785.316133,1423.60287 789.707881,1422.11667 C797.135757,1419.60187 804.568972,1419.96184 811.814378,1422.74144 C817.477187,1424.91447 819.948991,1429.20676 820.428755,1435.02083 L808.559286,1435.02083 C806.904592,1429.70906 802.311682,1428.94527 797.052977,1429.54438 C795.924332,1429.67264 794.711127,1430.0624 793.785424,1430.66317 C791.117798,1432.39515 791.351004,1435.21529 794.233144,1436.59392 C795.27278,1437.09125 796.441479,1437.39495 797.585256,1437.66058 C800.456716,1438.32755 803.370899,1438.83978 806.220996,1439.57047 C808.781811,1440.22668 811.363987,1440.91434 813.789507,1441.8999 C818.813225,1443.94302 821.91878,1447.52199 821.997999,1452.72371 C822.079888,1458.1894 819.649918,1462.57602 814.400115,1465.41023 C810.959883,1467.26799 807.121776,1467.64451 803.297911,1468.03592 C798.062349,1468.57297 792.9336,1467.97468 788.020254,1466.24436 C781.6872,1464.0134 778.636831,1459.49107 777.749402,1452.80398 Z M773.674315,1467.37992 L762.199411,1467.37992 C762.001687,1465.82382 761.802236,1464.24533 761.544072,1462.20922 C760.573584,1463.03245 759.743833,1463.63516 759.037552,1464.35062 C753.529771,1469.92506 742.793095,1469.33644 737.766241,1466.22175 C735.073222,1464.55208 733.448258,1462.17772 732.615917,1459.32003 C732.078868,1457.47542 731.648882,1455.53299 731.626433,1453.62953 C731.507281,1443.97043 731.533184,1434.3105 731.525413,1424.65057 C731.524549,1424.25512 731.678239,1423.85967 731.755084,1423.48992 C734.886722,1422.65011 738.627075,1422.56223 743.444117,1423.25282 C743.529595,1424.3828 743.692783,1425.57992 743.6971,1426.77788 C743.722139,1433.81557 743.696236,1440.85408 743.721276,1447.8926 C743.725593,1449.40642 743.729046,1450.9393 743.966488,1452.42908 C744.62269,1456.55022 746.079286,1458.14943 749.551977,1458.83339 C753.596255,1459.63092 757.587864,1458.35172 759.256862,1455.15827 C760.311103,1453.1404 760.969032,1450.73288 761.045013,1448.47624 C761.281591,1441.44518 761.157258,1434.40335 761.171936,1427.36484 C761.173663,1426.01434 761.171936,1424.66384 761.171936,1423.07126 L773.638914,1423.07126 C773.712305,1437.71784 773.656183,1452.29063 773.674315,1467.37992 Z M527.708543,1421.13888 L538.176116,1421.13888 C538.317691,1423.22711 538.444536,1425.10487 538.593477,1427.29546 C540.751478,1425.19732 542.546129,1423.04305 544.736046,1421.43602 C546.979155,1419.7902 549.782019,1419.62347 552.952325,1419.79102 C553.291942,1423.63403 553.252661,1427.38212 552.908134,1431.59573 C551.282063,1431.59573 549.81639,1431.52475 548.359719,1431.60894 C542.6697,1431.93662 539.492848,1434.88738 539.256344,1440.6486 C538.985469,1447.23685 539.119679,1453.84161 539.082034,1460.43895 C539.073851,1461.92052 539.080398,1463.40209 539.080398,1465.19731 C535.061459,1465.73464 531.471337,1465.42677 527.961415,1465.39128 C527.159428,1462.05919 526.975298,1426.62937 527.708543,1421.13888 Z M724.446866,1465.51111 L712.07039,1465.51111 L712.07039,1407.53383 L724.289816,1407.53383 C725.18262,1410.63904 725.333007,1461.24254 724.446866,1465.51111 Z" id="Shape"></path>
        </g>
    </g>
</svg>