<svg xmlns="http://www.w3.org/2000/svg" viewBox="0 0 512 512"><g id="Livello_6" data-name="Livello 6"><path d="M434.94,285.83V108A73,73,0,1,0,289,108v78.14l-45.93,25.48-33.32-19.23V153.88l40.54-23.4a14.18,14.18,0,0,0,4.23-3.71,14.42,14.42,0,0,0-18.65-21.27l-26.12,15.07V90.42a14.42,14.42,0,1,0-28.84,0v30.15l-26.12-15.08a14.43,14.43,0,0,0-14.42,25l40.54,23.4v38.48l-33.32,19.23-33.33-19.23V145.55a14.43,14.43,0,0,0-28.85,0V175.7L59.29,160.62a14.42,14.42,0,0,0-16,1,14.43,14.43,0,0,0,1.57,23.94L71,200.69,44.87,215.75a14.43,14.43,0,0,0,14.42,25l40.55-23.39,33.32,19.24V275L99.84,294.28l-40.55-23.4a14.43,14.43,0,0,0-14.42,25L71,310.94,44.87,326a14.43,14.43,0,0,0,14.42,25l26.12-15.08v30.15a14.42,14.42,0,1,0,28.84,0V319.26L147.58,300l33.32,19.24v38.48l-40.53,23.4a14.42,14.42,0,1,0,14.42,25l26.11-15.07V421.2a14.43,14.43,0,1,0,28.85,0V391.05l26.11,15.07a14.45,14.45,0,0,0,14.13.17,116,116,0,1,0,185-120.46ZM257.5,236.57,289,218.4v67.43q-2.64,2.15-5.15,4.43L257.5,275Zm-62.17,57.71L162,275V236.57l33.33-19.24,33.33,19.24V275ZM246,376c0,.89,0,1.78,0,2.67l-36.26-20.93V319.26L243.07,300l21.79,12.58A116,116,0,0,0,246,376Zm116,86a86,86,0,0,1-85.53-94.93,1.37,1.37,0,0,1,0-.19c.07-.7.16-1.41.25-2.11s.16-1.16.25-1.74c0-.25.07-.5.12-.76.1-.6.2-1.2.31-1.79,0-.08,0-.17.05-.26.14-.76.29-1.51.45-2.26s.27-1.22.41-1.82c.06-.23.11-.46.17-.69q.24-1,.51-1.95c.2-.74.41-1.47.63-2.2s.41-1.35.63-2c.42-1.27.87-2.54,1.35-3.8.12-.34.25-.68.39-1,.47-1.19,1-2.37,1.49-3.54.17-.39.35-.78.53-1.16q1.78-3.86,3.95-7.52c.21-.35.42-.7.64-1.05s.57-.94.87-1.4l.12-.19c.41-.65.83-1.28,1.26-1.91l.22-.32c.33-.49.68-1,1-1.47a85,85,0,0,1,6.59-8.12q.78-.85,1.59-1.68c.48-.49,1-1,1.45-1.46a2.77,2.77,0,0,1,.25-.24c.46-.46.93-.9,1.4-1.34.14-.13.27-.26.41-.37.41-.39.83-.77,1.26-1.15.2-.19.41-.37.62-.54.42-.37.85-.73,1.28-1.09l.35-.29c.5-.42,1-.83,1.52-1.23q1.86-1.47,3.81-2.84l6.38-4.48V108a43,43,0,1,1,85.94,0V301.08l6.38,4.48A86,86,0,0,1,362,462Z"/><path d="M394.08,330.11l-6.38-4.48-12.76-9V168A13,13,0,1,0,349,168v148.7l-12.76,9-6.38,4.48a56,56,0,1,0,64.22,0Z"/></g></svg>