<svg xmlns="http://www.w3.org/2000/svg" viewBox="0 0 512 512"><g id="Livello_5" data-name="Livello 5"><path d="M40.36,380.5a20,20,0,0,0,27.26,7.31l36.16-20.87v41.75a20,20,0,0,0,39.95,0V343.87l46.15-26.64L236,343.87v53.28l-56.14,32.4a20,20,0,0,0,20,34.61L236,443.28V485A20,20,0,0,0,276,485V443.28l36.17,20.88a20,20,0,0,0,20-34.61L276,397.16V343.87l46.15-26.64,46.15,26.64v64.82a20,20,0,0,0,40,0V366.94l36.16,20.87a19.78,19.78,0,0,0,7.38,2.51,20,20,0,0,0,12.6-37.11L428.2,332.34l36.16-20.87a20,20,0,0,0,9.82-19.9,20.14,20.14,0,0,0-2.51-7.38,20,20,0,0,0-27.29-7.32l-56.14,32.41L342.1,282.63V229.36l46.14-26.62,56.14,32.4a19.78,19.78,0,0,0,7.38,2.51,20,20,0,0,0,12.6-37.11L428.2,179.67l36.16-20.87a20,20,0,0,0-20-34.6l-36.16,20.88V103.31a20,20,0,0,0-40,0v64.82l-46.15,26.64L276,168.13V114.85l56.13-32.4a20,20,0,0,0,9.31-12.13,20,20,0,0,0-29.28-22.47L276,68.72V27a20,20,0,0,0-40,0V68.72L199.87,47.84a20,20,0,0,0-20,34.61L236,114.85v53.28l-46.14,26.64-46.16-26.64V103.31a20,20,0,0,0-39.94,0v41.75L67.62,124.19a19.78,19.78,0,0,0-7.38-2.51,20,20,0,0,0-12.59,37.11L83.8,179.67,47.65,200.53a20,20,0,0,0,20,34.6l56.15-32.39,46.14,26.64v53.25l-46.14,26.64-56.15-32.4a20,20,0,1,0-20,34.6L83.8,332.34,47.65,353.21a20,20,0,0,0-9.31,12.13,20.21,20.21,0,0,0-.5,7.78A20,20,0,0,0,40.36,380.5ZM209.85,229.36,256,202.71l46.15,26.65v53.27L256,309.27l-46.15-26.64Z"/></g></svg>