<svg id="bfec3bf0-07ce-46c4-8816-164786e54ed5" data-name="Livello 1" xmlns="http://www.w3.org/2000/svg" viewBox="0 0 512 512"><title>Tavola disegno 1 copia 11</title><path d="M75.17,419.05l20.7-103.51h33.61l-20.7,103.51ZM176.48,385.2h21.44l-5.61-38-15.83,38Zm-47,33.85,50.66-103.51h33.12L234.2,419.05H203l-1.7-12.18H168.2l-5.35,12.18Zm135.65,0,11.45-77.93H247.35l4.88-26.06h90.35l-5.12,26.06H309.7l-11.45,77.93ZM377.89,385.2h21.44l-5.61-38-15.83,38Zm-47,33.85,50.66-103.51h33.36l20.7,103.51H404.2l-1.46-12.18H369.61l-5.36,12.18Zm178-220.41H351.1c-5.84,29-26.05,53.1-66,69.9,4.63,13.88,20.21,26.79,36.29,26.79h85.73c12.91,0,23.38-11.2,27.52-20H347.45c-5.11-1-5.6-5.11-.24-5.6h85.72c11,0,21.19-9.74,26.79-20H360.11c-5.11-.73-5.11-5.12,0-5.85H460.45c10.23,0,19.49-11.68,23.14-19.72H373.27c-5.36-.73-5.36-5.85,0-6.09H485.78c8.77,0,17.29-9.5,23.14-19.49Zm-505.84,0H161.14c5.85,29,25.81,53.1,65.76,69.9-4.39,13.88-20,26.79-36.05,26.79H105.13c-13.16,0-23.38-11.2-27.52-20h86.94c5.36-1,5.6-5.11.24-5.6H79.31c-11.2,0-21.19-9.74-27-20h99.85c4.87-.73,4.87-5.12,0-5.85H51.55c-10,0-19.24-11.68-23.14-19.72H138.73c5.61-.73,5.61-5.85,0-6.09H26.46c-8.77,0-17.29-9.5-23.38-19.49Zm201.65-87.18c5.85,4.87,12.43,9.49,19.49,12.18,6.09-11.7,14.37-21.68,23.87-30.69a87.42,87.42,0,0,0-43.36,18.51ZM177,169.18H212a109.52,109.52,0,0,1,9.74-40.43,80.07,80.07,0,0,1-21.18-13.4A80.38,80.38,0,0,0,177,169.18Zm76.23-33.13v33.13H218.13a96.4,96.4,0,0,1,8.77-38.48,80.41,80.41,0,0,0,26.3,5.35Zm54.07-24.59c-5.85,4.87-12.43,9.49-19.24,12.18C281.69,111.7,273.9,102.2,264.16,93a85.69,85.69,0,0,1,43.11,18.51Zm28,57.72H300a108.85,108.85,0,0,0-9.26-40.43,90.27,90.27,0,0,0,20.95-13.4,79,79,0,0,1,23.62,53.83ZM259,136.05v33.13h35.07c0-13.4-3.41-26.06-9-38.48A80.29,80.29,0,0,1,259,136.05Zm-54.31,96.69c5.85-4.63,12.67-9.5,19.49-12.18A108.24,108.24,0,0,0,248.09,251a84.13,84.13,0,0,1-43.36-18.27ZM177,175H212a112,112,0,0,0,9.74,40.67,86.12,86.12,0,0,0-21.18,13.15A81,81,0,0,1,177,175Zm76.23,33.12V175H218.13a93.47,93.47,0,0,0,8.77,38.24,87.21,87.21,0,0,1,26.3-5.12Zm54.07,24.6A76.2,76.2,0,0,0,288,220.56,108.6,108.6,0,0,1,264.16,251a83.32,83.32,0,0,0,43.11-18.27Zm28-57.72H300a105.52,105.52,0,0,1-9.26,40.67,94.87,94.87,0,0,1,20.95,13.15A80.86,80.86,0,0,0,335.27,175ZM259,208.14V175h35.07a90.86,90.86,0,0,1-9,38.24A87.07,87.07,0,0,0,259,208.14ZM253.2,96.36a88.87,88.87,0,0,0-23.38,29.47c7.31,2.43,15.34,4.38,23.38,4.38V96.36Zm5.84,0a92.69,92.69,0,0,1,23.38,29.47A70.87,70.87,0,0,1,259,130.21V96.36ZM253.2,247.84a84.29,84.29,0,0,1-23.38-29.47,68.45,68.45,0,0,1,23.38-4.14v33.61Zm5.84.24a93.65,93.65,0,0,0,23.38-29.71A77.59,77.59,0,0,0,259,214.23v33.85Z" style="fill:#2276bb;fill-rule:evenodd"/></svg>