<?xml version="1.0" encoding="UTF-8"?>
<svg width="512px" height="512px" viewBox="0 0 512 512" version="1.1" xmlns="http://www.w3.org/2000/svg" xmlns:xlink="http://www.w3.org/1999/xlink">
    <g id="assets" stroke-width="1" fill-rule="evenodd">
        <g id="Artboard" transform="translate(-939.000000, -740.000000)" fill-rule="nonzero">
            <path d="M1195.00198,740 C1296.06757,740 1377.97067,820.446133 1378.00396,919.640855 C1378.00396,927.108451 1377.38329,934.448476 1376.46946,941.691507 C1361.19209,1082.07029 1209.49653,1244.11596 1209.49653,1244.11596 C1206.75504,1247.03215 1204.1102,1248.98682 1201.56415,1250.33315 L1201.43314,1250.39747 L1196.30776,1252 L1191.18237,1250.39747 L1191.05136,1250.33315 C1188.50531,1248.98787 1185.86155,1247.12914 1183.11899,1244.11596 C1183.11899,1244.11596 1029.20382,1082.35917 1013.56672,942.010959 C1012.62067,934.671988 1012,927.268704 1012,919.672484 C1012,820.446133 1093.93639,740 1195.00198,740 Z M1194.49505,1027.93663 C1257.76829,1027.93663 1309.06139,976.643538 1309.06139,913.370297 C1309.06139,850.097056 1257.76829,798.80396 1194.49505,798.80396 C1131.22181,798.80396 1079.92871,850.097056 1079.92871,913.370297 C1079.92871,976.643538 1131.22181,1027.93663 1194.49505,1027.93663 Z" id="Combined-Shape"></path>
        </g>
    </g>
</svg>
