<svg id="be600961-7917-4fbd-b944-51e6d66552d7" data-name="Livello 1" xmlns="http://www.w3.org/2000/svg" xmlns:xlink="http://www.w3.org/1999/xlink" viewBox="0 0 512 512"><defs><clipPath id="a6e35830-e6c9-42f3-9cd6-1fd130d40330"><polygon points="0 206.95 0 218.5 51.88 218.5 51.88 275.95 64.02 275.95 64.02 218.5 116 218.5 116 206.95 0 206.95" style="fill:none;clip-rule:evenodd"/></clipPath><clipPath id="f6a3fe01-8834-4db4-be6c-b66b3b1ee3e0"><rect y="0.95" width="512" height="512" style="fill:none"/></clipPath><clipPath id="a1a36d1b-d5d0-49f5-b1b3-4efa4a47b5aa"><path d="M150.1,244.88h23.64L150.1,217.65V207h6.08L216,276H200.66l-16.89-19.52H150.1Zm-23.74,0H150.1v11.55H116.42L99.34,276H84l60-69h6.08v10.7Z" style="fill:none;clip-rule:evenodd"/></clipPath><clipPath id="a6de674b-14f3-4957-950f-97124283b3e7"><path d="M364.26,207,304,276h15.5l17.05-19.52h33.81V244.88H346.63l23.73-27.23V207Zm6.1,0v10.7l23.83,27.23H370.36v11.55h33.81L421.32,276h15.4l-17.14-19.52H512V244.88H409.6L376.47,207Z" style="fill:none;clip-rule:evenodd"/></clipPath><clipPath id="ad280b24-9815-4da1-b076-5e8499663290"><path d="M271.08,214.32a15.2,15.2,0,1,1-15.27,15.2,15.2,15.2,0,0,1,15.27-15.2" style="fill:none;clip-rule:evenodd"/></clipPath><clipPath id="af30c9e6-30d7-4488-bd90-dffd3d4c0732"><rect x="216.52" y="200.08" width="109.13" height="76.49" style="fill:none"/></clipPath><clipPath id="f4aa09d8-eb47-4a63-948e-efbfd9e7d695"><rect x="216" y="199.95" width="110" height="77" style="fill:none"/></clipPath><clipPath id="b5b42a62-d79f-4e3d-a2ff-c87fa4a64c73"><path d="M325.65,231.55c-1.95,15.2-25.58,27.31-54.57,27.31-17.6,0-33.26-4.46-43.28-11.43l.58.39v28.76H216.52v-45c3.11,8.91,26.35,15.78,54.56,15.78s51.46-6.87,54.57-15.78m-54.57-31.47c29,0,52.62,12.11,54.57,27.4-3.11-8.9-26.36-15.88-54.57-15.88s-51.45,7-54.56,15.88c1.94-15.29,25.67-27.4,54.56-27.4" style="fill:none;clip-rule:evenodd"/></clipPath><clipPath id="a4f6ef03-22e3-4cfc-8775-07dbf8947c01"><path d="M302.11,306.59v-1h.39a2.47,2.47,0,0,0,2.14-1.06,6.35,6.35,0,0,0,.78-3.58,7.49,7.49,0,0,0-1.36-4.94,2.6,2.6,0,0,0-1.95-1.26v-.87a5.29,5.29,0,0,1,4.38,2,6.65,6.65,0,0,1,1.36,4.07,7.12,7.12,0,0,1-.78,3.29,5.21,5.21,0,0,1-2.14,2.42A4.65,4.65,0,0,1,302.11,306.59Zm0-12.68v.87h-.39a2.77,2.77,0,0,0-1.46.39,3.49,3.49,0,0,0-1.07,1.45,6.65,6.65,0,0,0-.48,2.61,9.39,9.39,0,0,0,1.07,4.55,3.32,3.32,0,0,0,2.33,1.84v1h-.19a5.28,5.28,0,0,1-4.28-2.13,7,7,0,0,1-1.37-4.06,6.74,6.74,0,0,1,.88-3.3,5.31,5.31,0,0,1,2.14-2.42A5.91,5.91,0,0,1,302.11,293.91Zm-11.77,12.3v-.49a2.38,2.38,0,0,0,1.07-.19,1.22,1.22,0,0,0,.49-.49,5.2,5.2,0,0,0,.19-1.55v-4.55c0-1.35-.1-2.13-.1-2.51a1.52,1.52,0,0,0-.29-.59.72.72,0,0,0-.58-.19,2.34,2.34,0,0,0-.78.1v-.49l3.31-1.35h.58v9.58a4.8,4.8,0,0,0,.2,1.55,1.14,1.14,0,0,0,.48.49c.2.19.59.19,1.17.19v.49Zm0-1.65c.1-.29.2-.49.29-.78h-.29Zm2.82-16.95a1.75,1.75,0,0,1,1,.39,1.4,1.4,0,0,1,0,1.94,1.4,1.4,0,0,1-1.94,0,1.4,1.4,0,0,1,0-1.94A1.75,1.75,0,0,1,293.16,287.61Zm-2.82,7.65v.49l-.1.09-.19-.48Zm0,8.52h-.19a2.23,2.23,0,0,1-.68.88,2,2,0,0,1-.78.19,1,1,0,0,1-.88-.39,2.92,2.92,0,0,1-.29-1.55v-7.74h2.72v-.87h-2.72v-4H287a13.8,13.8,0,0,1-.77,1.84,10.83,10.83,0,0,1-1.37,1.64,7.21,7.21,0,0,1-1.36.87v.49h1.75v8a4.86,4.86,0,0,0,.29,1.94,2.79,2.79,0,0,0,.88,1,2.56,2.56,0,0,0,2.92-.39,3.87,3.87,0,0,0,1-1.16Zm-.1,2.43h.1v-.49h-.1Zm-6.71-4.07v-.49h.1C283.63,301.85,283.53,301.94,283.53,302.14Zm0-7.46v.49h-.1v-.39Zm0,7-.29-.19a6.46,6.46,0,0,1-1.36,2.23,3.5,3.5,0,0,1-2.34.87,3.27,3.27,0,0,1-2.82-1.65,6.2,6.2,0,0,1-1.07-3.77,4.77,4.77,0,0,1,1.07-3.39,2.34,2.34,0,0,1,2-1,1.67,1.67,0,0,1,1.84,1.55,1.51,1.51,0,0,0,.3,1.06,1.61,1.61,0,0,0,1.16.49,1.23,1.23,0,0,0,.88-.29,1.14,1.14,0,0,0,.29-.78,2.35,2.35,0,0,0-1.07-1.93,4.25,4.25,0,0,0-2.92-1,5.6,5.6,0,0,0-4.08,1.74,7.38,7.38,0,0,0-.1,9.2,4.42,4.42,0,0,0,3.5,1.74,4.65,4.65,0,0,0,3.11-1.26,6.46,6.46,0,0,0,1.85-3.19Zm-15.85,4.85v-2.43a2.76,2.76,0,0,0,1.55.39,3.06,3.06,0,0,0,2-.68,4.45,4.45,0,0,0,1.46-2.22l.38.29a5.75,5.75,0,0,1-1.55,3.29,4.23,4.23,0,0,1-3.31,1.45A1.31,1.31,0,0,1,267.68,306.5Zm0-7.75V298h2.72a2.9,2.9,0,0,0-.29-1.54,2.31,2.31,0,0,0-1-1.17,2.35,2.35,0,0,0-1.37-.48h-.09v-.87h.87a4.43,4.43,0,0,1,3.31,1.26,5,5,0,0,1,1.26,3.58Zm0-4.84v.87a3.68,3.68,0,0,0-1.85.87,4.17,4.17,0,0,0-1,2.32h2.82v.78h-2.82a5.69,5.69,0,0,0,1.36,4.16,2.77,2.77,0,0,0,1.46,1.16v2.43a4.76,4.76,0,0,1-3.12-1.65,4.91,4.91,0,0,1-1.36-2.61v-3.88a5.22,5.22,0,0,1,1.36-2.71A5,5,0,0,1,267.68,293.91Zm-4.48,10.36c.1-.1.1-.29.2-.49h-.2Zm0-5.91v3.88a11.68,11.68,0,0,1-.19-1.84A14.15,14.15,0,0,1,263.2,298.36Zm0,5.42h-.29a2.14,2.14,0,0,1-.68.88,2.47,2.47,0,0,1-.78.19.94.94,0,0,1-.87-.39,2.67,2.67,0,0,1-.39-1.55v-7.74H263v-.87h-2.82v-4h-.39a12.36,12.36,0,0,1-.78,1.84,10.77,10.77,0,0,1-1.36,1.64,5.62,5.62,0,0,1-1.46.87v.49h1.85v8a4.86,4.86,0,0,0,.29,1.94,2.69,2.69,0,0,0,.88,1,2.59,2.59,0,0,0,1.16.29,2.63,2.63,0,0,0,1.75-.68,3.49,3.49,0,0,0,1.07-1.45Zm-7-2.8V299a2.9,2.9,0,0,1,.1,1A3.2,3.2,0,0,1,256.2,301Zm0-6.3v0Zm0,4.36a6.24,6.24,0,0,0-1.26-3.1,5.56,5.56,0,0,0-4.38-2v.87A2.74,2.74,0,0,1,252.5,296a8,8,0,0,1,1.37,4.94,6.35,6.35,0,0,1-.78,3.58,2.49,2.49,0,0,1-2.14,1.06h-.39v1a5.11,5.11,0,0,0,2.82-.87,5.21,5.21,0,0,0,2.14-2.42,7,7,0,0,0,.68-2.32Zm-5.64-5.13v.87h-.39a2.77,2.77,0,0,0-1.46.39,2.41,2.41,0,0,0-1.07,1.45,6.63,6.63,0,0,0-.49,2.61,9.5,9.5,0,0,0,1.07,4.55,3.35,3.35,0,0,0,2.34,1.84v1h-.2a5.3,5.3,0,0,1-4.28-2.13,7.12,7.12,0,0,1-1.07-2v-4.07a5.25,5.25,0,0,1,.49-1.26,5.5,5.5,0,0,1,2.24-2.42A5.62,5.62,0,0,1,250.56,293.91ZM245,296.14a1.1,1.1,0,0,0,.3-.78,1.52,1.52,0,0,0-.3-.87Zm0-1.65v1.74a1.31,1.31,0,0,1-.87.29,1.56,1.56,0,0,1-1-.38,1.92,1.92,0,0,0-.88-.49.93.93,0,0,0-.49.29,7.83,7.83,0,0,0-1.26,1.74v5.72a3.48,3.48,0,0,0,.29,1.55,1.71,1.71,0,0,0,.59.58,4,4,0,0,0,1.26.19v.49h-6.13v-.49a2.59,2.59,0,0,0,1.36-.29.81.81,0,0,0,.39-.68,3.24,3.24,0,0,0,.1-1.26v-4.64a11.51,11.51,0,0,0-.1-2.42.59.59,0,0,0-.29-.59,1.47,1.47,0,0,0-.58-.19,3.09,3.09,0,0,0-.88.19v-.48l3.5-1.45h.49v2.71c1.07-1.84,2-2.71,3.11-2.71a1.52,1.52,0,0,1,1.17.39Zm0,3.87a7.29,7.29,0,0,0,0,4.07Zm-8.46-3.77c0-.39.1-.78.1-1.17s-.1-.77-.1-1.06Zm0-2.23v2.23a4.74,4.74,0,0,1-1.36,2.32,5.47,5.47,0,0,1-4.08,1.36h-.2v-.88a3.11,3.11,0,0,0,1.75-1,3.91,3.91,0,0,0,1-2.72,5,5,0,0,0-.48-2.13,3.6,3.6,0,0,0-1.36-1.55c-.3-.09-.59-.29-.88-.38v-1.07a8.64,8.64,0,0,1,2.43.39,5.13,5.13,0,0,1,2.34,1.65A5.68,5.68,0,0,1,236.55,292.36Zm0,3h-.19l.19.39Zm-5.64-6.78v1.07c-.39,0-.68-.1-1.07-.1a6.72,6.72,0,0,0-1.65.29v7.36c.39.1.87.1,1.16.19h1.56v.88a4.63,4.63,0,0,1-1.17-.1,4.47,4.47,0,0,1-1.55-.29v5.23a4.3,4.3,0,0,0,.29,2,2,2,0,0,0,1.56.58h.68v.49h-7.59v-.49h.58a1.66,1.66,0,0,0,1.66-.77,3.53,3.53,0,0,0,.29-1.84V291.68a4.26,4.26,0,0,0-.39-2.13,1.92,1.92,0,0,0-1.56-.58h-.58v-.48h6.52A5.94,5.94,0,0,1,230.91,288.58Zm-19.36,13.95v-.78l.2.1A6.54,6.54,0,0,1,211.55,302.53Zm0-3.78V297.3a7.23,7.23,0,0,1,.2,1.45Zm0-3.58h1.76v8a4.69,4.69,0,0,0,.29,1.94,2.4,2.4,0,0,0,3.79.58,4.23,4.23,0,0,0,1.27-1.94h-.49a2.23,2.23,0,0,1-.68.88,2.47,2.47,0,0,1-.78.19,1,1,0,0,1-.88-.39,2.76,2.76,0,0,1-.38-1.55v-7.74h2.82v-.87h-2.82v-4h-.39a15,15,0,0,1-.78,1.84,11.39,11.39,0,0,1-1.36,1.64,5.22,5.22,0,0,1-1.37.87Zm0-.49v.49h-.09v-.39A.09.09,0,0,1,211.55,294.68Zm0,2.62a5.36,5.36,0,0,0-1.07-2.13,4.63,4.63,0,0,0-3.4-1.26h-.87v.87h.19a2.58,2.58,0,0,1,1.36.48,2.79,2.79,0,0,1,1,1.17A8.51,8.51,0,0,1,209,298h-2.82v.78h5.34Zm0,4.45v.78a5.07,5.07,0,0,1-1.45,2.61,4.23,4.23,0,0,1-3.31,1.45,1.29,1.29,0,0,1-.58-.09v-2.43a3.08,3.08,0,0,0,1.65.39,3,3,0,0,0,2-.68,4.45,4.45,0,0,0,1.46-2.22Zm-5.34-7.84v.87a3.07,3.07,0,0,0-1.76.87,3.68,3.68,0,0,0-1,2.32h2.73v.78h-2.73a6.08,6.08,0,0,0,1.27,4.16,3.75,3.75,0,0,0,1.46,1.16v2.43a4.76,4.76,0,0,1-3.12-1.65,7.41,7.41,0,0,1,.1-9.2A4.81,4.81,0,0,1,206.21,293.91Zm-32.88,6.39v-1h3l-3-7.16v-2.81l.49-1.26h.48l6.13,14.72a7.7,7.7,0,0,0,1.36,2.32,2.37,2.37,0,0,0,1.75.58v.49h-7v-.49a2,2,0,0,0,1.36-.39.72.72,0,0,0,.39-.67,7.4,7.4,0,0,0-.49-1.84l-1.07-2.52Zm17.7-6.39V298h-.39a5.5,5.5,0,0,0-1.26-2.61,2.93,2.93,0,0,0-2-.68,2.39,2.39,0,0,0-1.46.49,1.33,1.33,0,0,0-.59,1.06,2,2,0,0,0,.49,1.26,5.07,5.07,0,0,0,1.65,1.16l1.85.87c1.85.88,2.63,2,2.63,3.39a3.06,3.06,0,0,1-1.17,2.62,4.17,4.17,0,0,1-2.72,1.06,12.52,12.52,0,0,1-2.53-.38,3,3,0,0,0-.78-.2c-.2,0-.29.2-.49.39h-.39v-4.26h.39a5.19,5.19,0,0,0,1.46,2.71,3.17,3.17,0,0,0,2.34,1,2,2,0,0,0,1.46-.58,1.59,1.59,0,0,0,.58-1.26,1.74,1.74,0,0,0-.68-1.45,7.54,7.54,0,0,0-2.53-1.55,8,8,0,0,1-2.43-1.75,3,3,0,0,1-.59-1.84,3.26,3.26,0,0,1,1-2.51,3.51,3.51,0,0,1,2.62-1,6.29,6.29,0,0,1,1.75.29,4.56,4.56,0,0,0,.88.19.37.37,0,0,0,.29-.09,1.27,1.27,0,0,0,.29-.39Zm9.05,0V298h-.39a5.48,5.48,0,0,0-1.36-2.61,2.69,2.69,0,0,0-2-.68,2.42,2.42,0,0,0-1.46.49,1.32,1.32,0,0,0-.58,1.06,2,2,0,0,0,.39,1.26,6.37,6.37,0,0,0,1.65,1.16l2,.87c1.75.88,2.62,2,2.62,3.39a3.08,3.08,0,0,1-1.16,2.62,4.46,4.46,0,0,1-2.83,1.06,14.87,14.87,0,0,1-2.52-.38,2.49,2.49,0,0,0-.69-.2c-.19,0-.38.2-.48.39h-.39v-4.26h.39a4.58,4.58,0,0,0,1.46,2.71,3.1,3.1,0,0,0,2.23,1,2.08,2.08,0,0,0,1.56-.58A1.86,1.86,0,0,0,199,304a2,2,0,0,0-.59-1.45,7.43,7.43,0,0,0-2.53-1.55,8.77,8.77,0,0,1-2.52-1.75,3,3,0,0,1-.59-1.84,3.33,3.33,0,0,1,1.07-2.51,3.4,3.4,0,0,1,2.63-1,6.27,6.27,0,0,1,1.65.29c.49.1.78.19.88.19s.29,0,.39-.09a1.71,1.71,0,0,0,.29-.39Zm-26.75-4.55v2.9l-3.11,7.07h3.11v1h-3.5l-1.17,2.81a4.5,4.5,0,0,0-.49,1.55.83.83,0,0,0,.39.67,4,4,0,0,0,1.66.39v.49h-5.55v-.49a3.73,3.73,0,0,0,1.46-.48,11.17,11.17,0,0,0,1.46-2.62ZM154.75,306.5V305a1.85,1.85,0,0,0,.68.1,3.06,3.06,0,0,0,2.34-1.16v-6.2a3.24,3.24,0,0,0-.49-1.64,2.51,2.51,0,0,0-1-1.07,2.4,2.4,0,0,0-1.27-.39h-.29v-.77h.39a3.53,3.53,0,0,1,2.63,1v-2.23a14.09,14.09,0,0,0-.1-2.52.86.86,0,0,0-.29-.58.73.73,0,0,0-.49-.19,4.11,4.11,0,0,0-1,.19l-.1-.48,3.5-1.46h.59v13.85c0,1.45.09,2.23.09,2.61a.92.92,0,0,0,.39.59c.1.19.29.19.49.19a6.37,6.37,0,0,0,1-.19l.1.48-3.6,1.45h-.58v-1.74a10,10,0,0,1-1.66,1.36A3.46,3.46,0,0,1,154.75,306.5Zm0-12.59v.77a2.87,2.87,0,0,0-1.85,1.07,7.37,7.37,0,0,0,0,7.94,3.43,3.43,0,0,0,1.85,1.35v1.46a.78.78,0,0,1-.49.09,4.43,4.43,0,0,1-3.4-1.64,6.15,6.15,0,0,1-1.46-4.26A7.64,7.64,0,0,1,151,296,5.09,5.09,0,0,1,154.75,293.91ZM143.57,306.5v-2.43a2.76,2.76,0,0,0,1.55.39,3,3,0,0,0,2-.68,4.38,4.38,0,0,0,1.46-2.22l.39.29a5.81,5.81,0,0,1-1.55,3.29,4.23,4.23,0,0,1-3.31,1.45A1.29,1.29,0,0,1,143.57,306.5Zm0-7.75V298h2.72a2.9,2.9,0,0,0-.29-1.54,2.81,2.81,0,0,0-2.34-1.65h-.09v-.87h.87a4.43,4.43,0,0,1,3.31,1.26,5.08,5.08,0,0,1,1.26,3.58Zm0-4.84v.87a3.64,3.64,0,0,0-1.85.87,4.25,4.25,0,0,0-1,2.32h2.83v.78h-2.83a6.08,6.08,0,0,0,1.27,4.16,3.44,3.44,0,0,0,1.56,1.16v2.43a4.54,4.54,0,0,1-3.12-1.65,4.91,4.91,0,0,1-1.36-2.61v-3.78a5.17,5.17,0,0,1,1.36-2.81A5,5,0,0,1,143.57,293.91Zm-4.48,10.36c.1-.1.1-.29.2-.49h-.2Zm0-5.81v3.78a10.6,10.6,0,0,1-.19-1.84A11.6,11.6,0,0,1,139.09,298.46Zm0,5.32h-.29a2.23,2.23,0,0,1-.68.88,2.47,2.47,0,0,1-.78.19,1,1,0,0,1-.88-.39,2.13,2.13,0,0,1-.38-1.55v-7.74h2.82v-.87h-2.82v-4h-.39c-.39.87-.59,1.45-.78,1.84a11.39,11.39,0,0,1-1.36,1.64l-.88.58v-.19c.1.1.1.1.2.1a1.44,1.44,0,0,1,.39,1.06,1.52,1.52,0,0,1-.3.87c-.09.1-.19.2-.29.2v-1.26h1.27v8a4.69,4.69,0,0,0,.29,1.94,2.4,2.4,0,0,0,3.79.58,3.49,3.49,0,0,0,1.07-1.45Zm-6.42-9.58v.19a2,2,0,0,1-.58.39v.39h.58v1.26a.91.91,0,0,1-.48.09,1.6,1.6,0,0,1-1.07-.38,2,2,0,0,0-.88-.49.93.93,0,0,0-.49.29,5.41,5.41,0,0,0-1.16,1.74v5.72a3.64,3.64,0,0,0,.19,1.55,1.76,1.76,0,0,0,.58.58,4.14,4.14,0,0,0,1.27.19v.49H124.5v-.49a2.62,2.62,0,0,0,1.36-.29,1.25,1.25,0,0,0,.49-.68v-5.9a11.51,11.51,0,0,0-.1-2.42.61.61,0,0,0-.29-.59.86.86,0,0,0-.58-.19,3.9,3.9,0,0,0-.88.19v-.48l3.5-1.45h.59v2.71c1-1.84,1.94-2.71,3-2.71A1.91,1.91,0,0,1,132.67,294.2Zm-8.17,7.07a5.36,5.36,0,0,0,.1-1.26,5,5,0,0,0-.1-1.26Zm0-5.91v.48l-.1-.48Zm0,3.39a7.3,7.3,0,0,0-1.26-2.81,5.56,5.56,0,0,0-4.38-2h-.1v.87a2.77,2.77,0,0,1,2,1.26,8.11,8.11,0,0,1,1.36,4.94,5.53,5.53,0,0,1-.88,3.58,2.2,2.2,0,0,1-2,1.06h-.49v1a5.16,5.16,0,0,0,2.92-.87,5.75,5.75,0,0,0,2.14-2.42,16.68,16.68,0,0,0,.68-2Zm-5.74-4.84v.87h-.39a2.68,2.68,0,0,0-1.36.39,3.06,3.06,0,0,0-1.17,1.45,6.79,6.79,0,0,0-.38,2.61,9.39,9.39,0,0,0,1.07,4.55,3.37,3.37,0,0,0,2.23,1.84v1h-.09a5.16,5.16,0,0,1-4.28-2.13A7,7,0,0,1,113,300.4a7.91,7.91,0,0,1,.78-3.3,6,6,0,0,1,2.14-2.42A6.23,6.23,0,0,1,118.76,293.91Zm-11.57,12.68v-.77a2.63,2.63,0,0,0,1.94-1.07,5.92,5.92,0,0,0,1.07-3.68,6.8,6.8,0,0,0-1.16-4.26,2.71,2.71,0,0,0-1.85-1V294a2.87,2.87,0,0,1,.87-.09,3.92,3.92,0,0,1,3,1.45,6.48,6.48,0,0,1,1.46,4.45,7.7,7.7,0,0,1-1.75,5.14A5,5,0,0,1,107.19,306.59Zm0-12.59v1.84c-.1,0-.1-.09-.2-.09a3.53,3.53,0,0,0-1.26.39,6.73,6.73,0,0,0-1.56,1.35v4.45c0,1,.1,1.65.1,1.94a3.21,3.21,0,0,0,1,1.36,2.77,2.77,0,0,0,1.75.58h.2v.77h-.1a4.62,4.62,0,0,1-1.75-.29,4.82,4.82,0,0,1-1.17-.77v3.58a5.13,5.13,0,0,0,.2,1.65,1.17,1.17,0,0,0,.48.48,4,4,0,0,0,1.36.19v.49h-6v-.49h.1a2.64,2.64,0,0,0,1.27-.29,1.06,1.06,0,0,0,.39-.48c0-.19.09-.68.09-1.55V297.78a5.13,5.13,0,0,0-.09-1.45,1.06,1.06,0,0,0-.39-.49.89.89,0,0,0-.59-.19,3.46,3.46,0,0,0-.78.19v-.48l3.51-1.45h.48v2.81a9.23,9.23,0,0,1,1.85-2.23A6.47,6.47,0,0,1,107.19,294Zm-7,10.27a3,3,0,0,0,.3-1.36,2.54,2.54,0,0,0-.3-1.16Zm0-8.91v.48l-.19-.38Zm0,6.39a4.55,4.55,0,0,0-2.43-2.23l-1.85-.87a6,6,0,0,1-1.75-1.16,2.79,2.79,0,0,1-.39-1.26,1.33,1.33,0,0,1,.59-1.06,2.39,2.39,0,0,1,1.46-.49,3.07,3.07,0,0,1,2,.68A6.36,6.36,0,0,1,99.11,298h.39v-4.06h-.39a1.27,1.27,0,0,1-.29.39.36.36,0,0,1-.29.09,7.28,7.28,0,0,1-1-.19,5.28,5.28,0,0,0-1.66-.29,3.51,3.51,0,0,0-2.62,1,3.33,3.33,0,0,0-1.07,2.51,3,3,0,0,0,.58,1.84A9,9,0,0,0,95.32,301a7.43,7.43,0,0,1,2.53,1.55,2,2,0,0,1,.68,1.45,1.56,1.56,0,0,1-.58,1.26,2,2,0,0,1-1.46.58,3.17,3.17,0,0,1-2.34-1,5.26,5.26,0,0,1-1.46-2.71h-.38v4.26h.38a.68.68,0,0,1,.49-.39,2.35,2.35,0,0,1,.68.2,15,15,0,0,0,2.53.38,4.41,4.41,0,0,0,2.82-1.06,3.12,3.12,0,0,0,1-1.26Zm-.29,10.17h.29v-.49h-.29Zm-20.33-5.71v-.49a1.32,1.32,0,0,0,1.17-.48,3.44,3.44,0,0,0,.29-1.75V299a15.6,15.6,0,0,0-.09-2.61,1.65,1.65,0,0,0-.3-.59c-.09-.19-.29-.19-.58-.19a1.05,1.05,0,0,0-.49.1v-.58l3-1.26h.58v2.52c1.46-1.65,2.82-2.52,4.09-2.52a3.27,3.27,0,0,1,1.65.48A3.11,3.11,0,0,1,90.07,296a6.83,6.83,0,0,1,.29,2.32v5.13a5.82,5.82,0,0,0,.1,1.55,1.19,1.19,0,0,0,.48.49,2,2,0,0,0,1.17.19v.49H86.18v-.49h.29a3,3,0,0,0,1.17-.19,2.14,2.14,0,0,0,.48-.78v-6.1a4.88,4.88,0,0,0-.39-2.42,1.53,1.53,0,0,0-1.45-.68,4.34,4.34,0,0,0-3.12,1.65v6.29a4.35,4.35,0,0,0,.2,1.55,1.14,1.14,0,0,0,.48.49c.2.19.68.19,1.27.19v.49Zm0-1.07a4.12,4.12,0,0,0,.59-.68v-.68a2.55,2.55,0,0,1-.59.49Zm0-10v.58a.81.81,0,0,0-.39.09l-.19-.48Zm0,9.1-.48.48h-.39a.36.36,0,0,1-.29-.09,2.09,2.09,0,0,1-.3-.49V298a5,5,0,0,0-.29-2.22,2.48,2.48,0,0,0-1.07-1.36,6.66,6.66,0,0,0-2.62-.48h-.49v.77h.1a2,2,0,0,1,1.65.68,3.83,3.83,0,0,1,.59,2.42v.49q-1.32.44-2.34.87V300c.49-.2,1.27-.49,2.34-1v4.55A6.87,6.87,0,0,1,73.63,305v1.16A25.88,25.88,0,0,0,76,304.46a2.13,2.13,0,0,0,.38,1.55,1.15,1.15,0,0,0,1,.39,3.14,3.14,0,0,0,2.23-1.26Zm0,1.45v.49h-.39v-.49h.39Zm-5.93-11.81v.77a1.84,1.84,0,0,0-1.26.49,1.32,1.32,0,0,0-.49,1v.77a1.66,1.66,0,0,1-.29,1,1.14,1.14,0,0,1-.78.29.9.9,0,0,1-.78-.39,1.18,1.18,0,0,1-.29-.87,2.39,2.39,0,0,1,1.07-2A4.85,4.85,0,0,1,73.63,293.91Zm0,5.23V300c-.1.09-.19.09-.29.19a4.9,4.9,0,0,0-1.46,1.16,2.63,2.63,0,0,0-.49,1.36,2.45,2.45,0,0,0,.59,1.65,2,2,0,0,0,1.36.58h.29v1.16a4.17,4.17,0,0,1-1.56.39,2.8,2.8,0,0,1-2-.88,3.24,3.24,0,0,1-.48-.77V302a.29.29,0,0,1,.09-.19,5.33,5.33,0,0,1,1.85-1.65A21.31,21.31,0,0,1,73.63,299.14Zm-4.08-3a1.14,1.14,0,0,0,.29-.78,1.1,1.1,0,0,0-.29-.77Zm-7.4-7.65.2,4.16h-.59a3.54,3.54,0,0,0-.19-1.16v-3Zm7.4,6.1v1.55l-.1.09a1.1,1.1,0,0,1-.78.29,1.81,1.81,0,0,1-1.07-.38,1.92,1.92,0,0,0-.88-.49.91.91,0,0,0-.48.29,5.41,5.41,0,0,0-1.17,1.74v5.72a3.47,3.47,0,0,0,.2,1.55,1.66,1.66,0,0,0,.58.58,4.59,4.59,0,0,0,1.26.19v.49H61.57v-.49a7.32,7.32,0,0,0,.78-.29,1.23,1.23,0,0,0,.48-.68v-8.32a.9.9,0,0,0-.38-.59.89.89,0,0,0-.59-.19h-.29v-.58l2.92-1.16h.58v2.71c1-1.84,2-2.71,3-2.71a1.91,1.91,0,0,1,1.26.39C69.35,294.39,69.45,294.49,69.55,294.59Zm0,7.45a3,3,0,0,0-.3,1.36,3.77,3.77,0,0,0,.3,1.45Zm-8-10.55a.79.79,0,0,0-.19-.39,2.54,2.54,0,0,0-1.07-1.16,4,4,0,0,0-1.76-.29H56v13.46c0,1.16.09,1.84.38,2a1.93,1.93,0,0,0,1.56.58h.58v.49H51.06v-.49h.59A1.58,1.58,0,0,0,53.2,305a3.78,3.78,0,0,0,.3-1.93V289.65H51.36a4.38,4.38,0,0,0-1.75.19,3.17,3.17,0,0,0-1.17.87,5,5,0,0,0-.58,1.94h-.49l.19-4.16h14Zm0,3.58-.68.29.1.48a1.47,1.47,0,0,1,.58-.19ZM61,306.21h.58v-.49H61Z" style="fill:none;clip-rule:evenodd"/></clipPath><clipPath id="e3ec91a3-f358-4d96-a9a6-e095812cfd15"><path d="M423.6,301.27v-2.62a6.91,6.91,0,0,1,.09,1.36A5.94,5.94,0,0,1,423.6,301.27Zm0-5.62.09.19a3.09,3.09,0,0,1,.88-.19c.19,0,.39,0,.48.19a.88.88,0,0,1,.39.59c0,.29.1,1.16.1,2.61v4.45a3.21,3.21,0,0,1-.39,1.75c-.19.38-.58.48-1.17.48h-.29v.49h5.94v-.49a2.61,2.61,0,0,1-1.37-.19c-.19-.1-.29-.29-.48-.49a5.41,5.41,0,0,1-.1-1.55V297.2a4,4,0,0,1,3.11-1.65c.68,0,1.17.2,1.37.68a4.81,4.81,0,0,1,.48,2.42v4.84a3.56,3.56,0,0,1-.1,1.26,2,2,0,0,1-.38.78,4.14,4.14,0,0,1-1.27.19h-.19v.49h5.93v-.49c-.58,0-1,0-1.17-.19A1.14,1.14,0,0,1,435,305a4.8,4.8,0,0,1-.2-1.55v-5.13a6.83,6.83,0,0,0-.29-2.32,3.68,3.68,0,0,0-1.07-1.65,3.38,3.38,0,0,0-1.75-.48c-1.27,0-2.63.87-4,2.52v-2.52h-.58l-3.5,1.35Zm0-.39v.39l-.1-.29Zm0,3.39a6.34,6.34,0,0,0-1.27-2.71,5.29,5.29,0,0,0-4.38-2v.87A2.6,2.6,0,0,1,419.9,296a7.49,7.49,0,0,1,1.36,4.94c0,1.74-.19,2.9-.78,3.58a2.46,2.46,0,0,1-2.14,1.06H418v1a5.16,5.16,0,0,0,2.92-.87,5.48,5.48,0,0,0,2-2.42,5.69,5.69,0,0,0,.69-2ZM418,293.91v.87h-.38a2.74,2.74,0,0,0-1.46.39,3.49,3.49,0,0,0-1.07,1.45,6.46,6.46,0,0,0-.49,2.61,9.5,9.5,0,0,0,1.07,4.55,3.32,3.32,0,0,0,2.33,1.84v1h-.09a5.35,5.35,0,0,1-4.38-2.13,7,7,0,0,1-1.36-4.06,6.73,6.73,0,0,1,.87-3.3,5.37,5.37,0,0,1,2.14-2.42A5.94,5.94,0,0,1,418,293.91Zm-11.77,12.3v-.49a2.35,2.35,0,0,0,1.07-.19,1.16,1.16,0,0,0,.49-.49,4.8,4.8,0,0,0,.2-1.55v-4.55a14,14,0,0,0-.1-2.51,1.86,1.86,0,0,0-.29-.59.65.65,0,0,0-.59-.19,2.4,2.4,0,0,0-.78.1v-.49l3.31-1.35h.59v9.58a4.88,4.88,0,0,0,.19,1.55,1.16,1.16,0,0,0,.49.49c.19.19.58.19,1.16.19v.49Zm0-1.65c.1-.29.2-.49.3-.78h-.3ZM409,287.61a1.78,1.78,0,0,1,1,.39,1.4,1.4,0,0,1,0,1.94,1.41,1.41,0,0,1-2,0,1.4,1.4,0,0,1,0-1.94A1.78,1.78,0,0,1,409,287.61Zm-2.83,7.65v.49l-.09.09-.2-.48Zm0,8.52H406a2.08,2.08,0,0,1-.58.88,3.09,3.09,0,0,1-.88.19.94.94,0,0,1-.87-.39,2.8,2.8,0,0,1-.3-1.55v-7.74h2.82v-.87h-2.82v-4H403c-.39.87-.69,1.45-.88,1.84a11.39,11.39,0,0,1-1.36,1.64,5.72,5.72,0,0,1-1,.68v.68h1.36v8a4.69,4.69,0,0,0,.29,1.94,2.75,2.75,0,0,0,.87,1,2.66,2.66,0,0,0,1.17.29,2.63,2.63,0,0,0,1.75-.68,2.82,2.82,0,0,0,1-1.16Zm-.09,2.43h.09v-.49h-.09Zm-6.32-1.07v-.87c.19-.2.38-.29.58-.49v.68A4.64,4.64,0,0,1,399.77,305.14Zm0-10.65v.68h-.49v-.39C399.47,294.68,399.57,294.59,399.77,294.49Zm0,9.78-.49.48h-.39c-.19,0-.29,0-.39-.09a.73.73,0,0,1-.19-.49c0-.29-.1-1-.1-2.13V298a5.55,5.55,0,0,0-.2-2.22,2.68,2.68,0,0,0-1.16-1.36,6.71,6.71,0,0,0-2.63-.48h-.39v.77a1.91,1.91,0,0,1,1.66.68,3.9,3.9,0,0,1,.58,2.42v.49c-.88.29-1.56.58-2.24.87V300c.49-.2,1.17-.49,2.24-1v4.55a6.53,6.53,0,0,1-2.24,1.36v1.16c.39-.2,1.07-.78,2.24-1.65a2.67,2.67,0,0,0,.39,1.55,1.33,1.33,0,0,0,1.07.39,3.17,3.17,0,0,0,2.24-1.26Zm-5.94-10.36v.77a1.68,1.68,0,0,0-1.26.49,1.07,1.07,0,0,0-.49,1v.77a1.66,1.66,0,0,1-.29,1,1.21,1.21,0,0,1-.88.29.87.87,0,0,1-.77-.39,1.15,1.15,0,0,1-.3-.87,2.51,2.51,0,0,1,1.17-2A4.88,4.88,0,0,1,393.83,293.91Zm0,5.23V300c-.1.09-.19.09-.29.19a4.9,4.9,0,0,0-1.46,1.16,2.61,2.61,0,0,0-.48,1.36,2.45,2.45,0,0,0,.58,1.65,1.74,1.74,0,0,0,1.26.58h.39v1.16h-.1a4.13,4.13,0,0,1-1.45.39,2.51,2.51,0,0,1-2-.88,3.05,3.05,0,0,1-.87-2.22,3.94,3.94,0,0,1,.39-1.55,5.72,5.72,0,0,1,1.94-1.65A14.07,14.07,0,0,1,393.83,299.14Zm-27.43,7.45v-1h.39a2.46,2.46,0,0,0,2.14-1.06,6.26,6.26,0,0,0,.78-3.58,7.49,7.49,0,0,0-1.36-4.94,2.6,2.6,0,0,0-2-1.26v-.87a5.29,5.29,0,0,1,4.38,2,6.58,6.58,0,0,1,1.36,4.07,7,7,0,0,1-.78,3.29,5.11,5.11,0,0,1-2.14,2.42A4.85,4.85,0,0,1,366.4,306.59Zm16.34-4.94a6.34,6.34,0,0,1-1.84,3.68,4.9,4.9,0,0,1-3.12,1.26,4.63,4.63,0,0,1-3.6-1.74,7.05,7.05,0,0,1-1.55-4.65,6.17,6.17,0,0,1,1.75-4.55,5.25,5.25,0,0,1,4-1.74,4.22,4.22,0,0,1,2.91,1,2.49,2.49,0,0,1,1.17,1.93,1.14,1.14,0,0,1-.29.78,1.66,1.66,0,0,1-1,.29,1.62,1.62,0,0,1-1.17-.49,5.08,5.08,0,0,1-.29-1.06,1.59,1.59,0,0,0-.49-1.16,1.8,1.8,0,0,0-1.26-.39,2.62,2.62,0,0,0-2.14,1,5.23,5.23,0,0,0-1.07,3.39,6.86,6.86,0,0,0,1.07,3.77,3.26,3.26,0,0,0,2.82,1.65,3.5,3.5,0,0,0,2.33-.87,6.14,6.14,0,0,0,1.46-2.23Zm3.51-14a1.45,1.45,0,0,1,.87.39,1.4,1.4,0,0,1,0,1.94,1.45,1.45,0,0,1-.87.39,1.78,1.78,0,0,1-1-.39,1.4,1.4,0,0,1,0-1.94A1.78,1.78,0,0,1,386.25,287.61Zm1.07,6.3v9.58a3.16,3.16,0,0,0,.19,1.55.79.79,0,0,0,.49.49c.19.19.58.19,1.16.19v.49h-5.83v-.49c.58,0,1,0,1.16-.19A1.16,1.16,0,0,0,385,305a4.8,4.8,0,0,0,.2-1.55v-4.55a11,11,0,0,0-.2-2.51.61.61,0,0,0-.29-.59c-.1-.19-.29-.19-.49-.19a3,3,0,0,0-.87.19l-.2-.48,3.6-1.45Zm-20.92,0v.87H366a2.79,2.79,0,0,0-1.46.39,3.67,3.67,0,0,0-1.07,1.45,6.65,6.65,0,0,0-.48,2.61,9.5,9.5,0,0,0,1.07,4.55,3.32,3.32,0,0,0,2.33,1.84v1h-.19a5.3,5.3,0,0,1-4.28-2.13,7,7,0,0,1-1.36-4.06,6.73,6.73,0,0,1,.87-3.3,5.37,5.37,0,0,1,2.14-2.42A5.65,5.65,0,0,1,366.4,293.91Zm-34.14,6.39v-1h3.12l-3-7.16-.1.09v-2.9l.59-1.26h.39l6.22,14.72a7.7,7.7,0,0,0,1.36,2.32,2.29,2.29,0,0,0,1.66.58v.49h-7v-.49a2.34,2.34,0,0,0,1.46-.39.72.72,0,0,0,.39-.67,5.22,5.22,0,0,0-.58-1.84l-1.07-2.52Zm17.8-6.39V298h-.39a6.62,6.62,0,0,0-1.26-2.61,3.09,3.09,0,0,0-2-.68,2.39,2.39,0,0,0-1.46.49,1.33,1.33,0,0,0-.59,1.06,2,2,0,0,0,.39,1.26,6.46,6.46,0,0,0,1.66,1.16l1.94.87c1.75.88,2.63,2,2.63,3.39a3.06,3.06,0,0,1-1.17,2.62,4.43,4.43,0,0,1-2.82,1.06,15,15,0,0,1-2.53-.38,2.44,2.44,0,0,0-.68-.2.68.68,0,0,0-.49.39h-.39v-4.26h.39a4.64,4.64,0,0,0,1.46,2.71,3.11,3.11,0,0,0,2.24,1,2.1,2.1,0,0,0,1.56-.58A1.85,1.85,0,0,0,349,304a1.94,1.94,0,0,0-.58-1.45,7.54,7.54,0,0,0-2.53-1.55,9,9,0,0,1-2.53-1.75,3,3,0,0,1-.58-1.84,3.33,3.33,0,0,1,1.07-2.51,3.51,3.51,0,0,1,2.62-1,6.33,6.33,0,0,1,1.66.29c.48.1.77.19.87.19s.29,0,.39-.09a1.27,1.27,0,0,0,.29-.39Zm9.15,0V298h-.49a5.4,5.4,0,0,0-1.27-2.61,2.65,2.65,0,0,0-1.94-.68,2.5,2.5,0,0,0-1.56.49,1.53,1.53,0,0,0-.48,1.06,1.89,1.89,0,0,0,.39,1.26,5,5,0,0,0,1.65,1.16l1.94.87c1.76.88,2.63,2,2.63,3.39a2.91,2.91,0,0,1-1.26,2.62,4.18,4.18,0,0,1-2.73,1.06,13.76,13.76,0,0,1-2.53-.38,3.77,3.77,0,0,0-.68-.2.64.64,0,0,0-.48.39h-.49v-4.26h.49a4.5,4.5,0,0,0,1.36,2.71,3.16,3.16,0,0,0,2.33,1,2,2,0,0,0,1.46-.58,1.57,1.57,0,0,0,.59-1.26,1.73,1.73,0,0,0-.69-1.45,7.36,7.36,0,0,0-2.52-1.55,8.1,8.1,0,0,1-2.44-1.75,3,3,0,0,1-.58-1.84,3.26,3.26,0,0,1,1-2.51,3.53,3.53,0,0,1,2.63-1,6.29,6.29,0,0,1,1.75.29,4.56,4.56,0,0,0,.88.19c.09,0,.29,0,.29-.09a1.71,1.71,0,0,0,.29-.39Zm-47.37,2.52c1.36-1.65,2.72-2.52,4-2.52a2.8,2.8,0,0,1,1.66.48,3.21,3.21,0,0,1,1.17,1.65,6.83,6.83,0,0,1,.29,2.32v5.13a4.88,4.88,0,0,0,.19,1.55.82.82,0,0,0,.49.49c.19.19.58.19,1.17.19v.49h-5.94v-.49h.2a2.9,2.9,0,0,0,1.16-.19,1.34,1.34,0,0,0,.49-.78,3.56,3.56,0,0,0,.1-1.26v-4.84a4.79,4.79,0,0,0-.49-2.42,1.48,1.48,0,0,0-1.36-.68,4,4,0,0,0-3.11,1.65v6.29a6,6,0,0,0,.09,1.55,1.22,1.22,0,0,0,.49.49,2.54,2.54,0,0,0,1.36.19v.49h-5.93v-.49H308c.68,0,1.07-.1,1.27-.48a3.55,3.55,0,0,0,.29-1.75V299a14.05,14.05,0,0,0-.1-2.61.61.61,0,0,0-.29-.59c-.1-.19-.29-.19-.49-.19a3,3,0,0,0-.87.19l-.2-.48,3.6-1.45h.59Zm20.42-7.07v2.9l-3,7.07h3v1h-3.4l-1.27,2.81a3.94,3.94,0,0,0-.39,1.55.83.83,0,0,0,.39.67,3.59,3.59,0,0,0,1.66.39v.49h-5.64v-.49a2.77,2.77,0,0,0,1.45-.48,6.78,6.78,0,0,0,1.46-2.62Z" style="fill:none;clip-rule:evenodd"/></clipPath></defs><title>Tavola disegno 1 copia 9</title><g style="clip-path:url(#a6e35830-e6c9-42f3-9cd6-1fd130d40330)"><g style="clip-path:url(#f6a3fe01-8834-4db4-be6c-b66b3b1ee3e0)"><rect x="-5" y="201.95" width="126" height="79" style="fill:#2276bb"/></g></g><g style="clip-path:url(#a1a36d1b-d5d0-49f5-b1b3-4efa4a47b5aa)"><g style="clip-path:url(#f6a3fe01-8834-4db4-be6c-b66b3b1ee3e0)"><rect x="79" y="201.95" width="142" height="79" style="fill:#2276bb"/></g></g><g style="clip-path:url(#a6de674b-14f3-4957-950f-97124283b3e7)"><g style="clip-path:url(#f6a3fe01-8834-4db4-be6c-b66b3b1ee3e0)"><rect x="299" y="201.95" width="218" height="79" style="fill:#2276bb"/></g></g><g style="clip-path:url(#ad280b24-9815-4da1-b076-5e8499663290)"><g style="clip-path:url(#f6a3fe01-8834-4db4-be6c-b66b3b1ee3e0)"><rect x="250.81" y="209.32" width="40.54" height="40.4" style="fill:#2276bb"/></g></g><g style="clip-path:url(#af30c9e6-30d7-4488-bd90-dffd3d4c0732)"><g style="clip-path:url(#f6a3fe01-8834-4db4-be6c-b66b3b1ee3e0)"><g style="isolation:isolate"><g style="clip-path:url(#f4aa09d8-eb47-4a63-948e-efbfd9e7d695)"><g style="clip-path:url(#b5b42a62-d79f-4e3d-a2ff-c87fa4a64c73)"><g style="clip-path:url(#f4aa09d8-eb47-4a63-948e-efbfd9e7d695)"><rect x="211.52" y="195.08" width="119.13" height="86.49" style="fill:#2276bb"/></g></g></g></g></g></g><g style="clip-path:url(#a4f6ef03-22e3-4cfc-8775-07dbf8947c01)"><g style="clip-path:url(#f6a3fe01-8834-4db4-be6c-b66b3b1ee3e0)"><rect x="42.37" y="282.61" width="270.48" height="34.3" style="fill:#2276bb"/></g></g><g style="clip-path:url(#e3ec91a3-f358-4d96-a9a6-e095812cfd15)"><g style="clip-path:url(#f6a3fe01-8834-4db4-be6c-b66b3b1ee3e0)"><rect x="302.65" y="282.61" width="138.98" height="28.98" style="fill:#2276bb"/></g></g></svg>