<svg xmlns="http://www.w3.org/2000/svg" viewBox="0 0 512 512"><g id="Livello_7" data-name="Livello 7"><path d="M502.28,159.6a54.19,54.19,0,0,0-24.35-20L276.76,55.82a51.31,51.31,0,0,0-41.52,0L34.07,139.64a54.19,54.19,0,0,0-24.35,20A52.94,52.94,0,0,0,.54,189.94V447.8a12.29,12.29,0,0,0,12.77,12.77H26.08A12.31,12.31,0,0,0,38.86,447.8V189.94a15,15,0,0,1,2.79-8.78,19.9,19.9,0,0,1,7.59-6.39l200.37-83a13.58,13.58,0,0,1,12.78,0l201.17,83a22.2,22.2,0,0,1,6.79,6.39,15,15,0,0,1,2.79,8.78V447.8a12.31,12.31,0,0,0,12.78,12.77h12.77a12.29,12.29,0,0,0,12.77-12.77V189.94A52.94,52.94,0,0,0,502.28,159.6Z"/><path d="M397.44,227.2A30.2,30.2,0,0,1,428.18,258V448.58a11.84,11.84,0,0,1-12.3,12.3h-12.3a11.84,11.84,0,0,1-12.29-12.3v-36.9H120.71v36.9a11.84,11.84,0,0,1-12.29,12.3H96.12a11.84,11.84,0,0,1-12.3-12.3V258a30.2,30.2,0,0,1,30.74-30.75Zm-6.15,86.09V264.1H120.71v49.19Zm0,73.79V337.89H120.71v49.19Z"/></g></svg>