<svg xmlns="http://www.w3.org/2000/svg" viewBox="0 0 512 512"><g id="Livello_3" data-name="Livello 3"><path d="M436.36,373.11a30.39,30.39,0,0,0,9.39-22.23V34.62a30.39,30.39,0,0,0-9.39-22.23A30.39,30.39,0,0,0,414.12,3H97.88a30.39,30.39,0,0,0-22.24,9.39,30.39,30.39,0,0,0-9.39,22.23V350.88a30.39,30.39,0,0,0,9.39,22.23,30.39,30.39,0,0,0,22.24,9.39h6.91l-35.58,82q-6.91,15.81,2.48,30.14T98.86,509H414.12q16.81,0,26.19-14.33t2.48-30.14l-35.58-82h6.91A30.39,30.39,0,0,0,436.36,373.11ZM122.58,461.56l54.36-126.5H335.06l54.36,126.5Zm275.73-126.5H387.44L374.59,306.4a28.06,28.06,0,0,0-10.87-13.34,30.7,30.7,0,0,0-17.79-5.44H166.07a30.7,30.7,0,0,0-17.79,5.44,28.06,28.06,0,0,0-10.87,13.34l-11.86,28.66H113.69V50.44H398.31Z"/></g></svg>