<svg id="Livello_1" data-name="Livello 1" xmlns="http://www.w3.org/2000/svg" viewBox="0 0 512 512"><path d="M86.4,256H67.2q-28,0-47.6,19.6T0,323.2a18.53,18.53,0,0,0,5.6,13.6,18.53,18.53,0,0,0,13.6,5.6,18.53,18.53,0,0,0,13.6-5.6,18.53,18.53,0,0,0,5.6-13.6,28.68,28.68,0,0,1,28.8-28.8H86.4a21.3,21.3,0,0,1,9.6,2.4,122.61,122.61,0,0,1,28-29.6A66.25,66.25,0,0,0,86.4,256ZM122,121.2q-18.8-18.8-45.2-18.8T31.6,121.2Q12.81,140,12.8,166.4t18.8,45.2q18.8,18.79,45.2,18.8T122,211.6q18.8-18.79,18.8-45.2T122,121.2ZM94.8,184.4a25.12,25.12,0,0,1-36,0,25.12,25.12,0,0,1,0-36,25.12,25.12,0,0,1,36,0,25.12,25.12,0,0,1,0,36ZM393.6,309.6q-16-24-44.4-33.2A93.13,93.13,0,0,0,292,276a124.66,124.66,0,0,1-36.4,5.6A116.86,116.86,0,0,1,220,276a93.13,93.13,0,0,0-57.2.4q-28.4,9.19-44.4,32.8a90,90,0,0,0-16,51.6v36a38.24,38.24,0,0,0,38.4,38.4H371.2a38.24,38.24,0,0,0,38.4-38.4v-36A88.2,88.2,0,0,0,393.6,309.6Zm-22.4,87.2H140.8v-36A51.47,51.47,0,0,1,156,323.6a52.33,52.33,0,0,1,36.8-16.4,162.42,162.42,0,0,0,126.4,0A52.33,52.33,0,0,1,356,323.6a51.47,51.47,0,0,1,15.2,37.2ZM333.6,121.6a89.6,89.6,0,0,0-155.2,0A89.6,89.6,0,0,0,211.2,244a89.6,89.6,0,0,0,134.4-77.6A88.16,88.16,0,0,0,333.6,121.6ZM292,202.4q-15.19,15.19-36,15.2t-36-15.2q-15.19-15.19-15.2-36t15.2-36q15.19-15.2,36-15.2t36,15.2q15.19,15.19,15.2,36T292,202.4Zm188.4-81.2q-18.79-18.8-45.2-18.8T390,121.2Q371.21,140,371.2,166.4T390,211.6q18.79,18.79,45.2,18.8t45.2-18.8q18.8-18.79,18.8-45.2T480.4,121.2Zm-27.2,63.2a25.46,25.46,0,1,1-36-36,25.46,25.46,0,1,1,36,36Zm39.2,91.2Q472.79,256,444.8,256H425.6A66.25,66.25,0,0,0,388,267.2,129.82,129.82,0,0,1,416,296a35.68,35.68,0,0,1,9.6-1.6h19.2a28.68,28.68,0,0,1,28.8,28.8,19.2,19.2,0,1,0,38.4,0Q512,295.19,492.4,275.6Z"/></svg>