<svg xmlns="http://www.w3.org/2000/svg" viewBox="0 0 512 512"><g id="Livello_10" data-name="Livello 10"><path d="M452,438a41.83,41.83,0,0,1-42,42H102a41.83,41.83,0,0,1-42-42V242a41.83,41.83,0,0,1,42-42h28V158a121.66,121.66,0,0,1,17.06-63A128.5,128.5,0,0,1,193,49.06a124.85,124.85,0,0,1,126,0,127.46,127.46,0,0,1,45.94,46.38A124,124,0,0,1,382,158.88V200h28a41.83,41.83,0,0,1,42,42ZM102,242V438H410V242Zm238-42V158q0-35-24.5-59.5T256,74q-35,0-59.5,24.5T172,158v42ZM238.5,385.5a23.74,23.74,0,0,1-7-17.5V312a24.5,24.5,0,1,1,49,0v56a24.75,24.75,0,0,1-42,17.5Z"/></g></svg>