<svg xmlns="http://www.w3.org/2000/svg" viewBox="0 0 512 512"><g id="Livello_2" data-name="Livello 2"><path d="M431.23,336.43a12.43,12.43,0,0,0-9.18-3.59H281.55V243.43a12.32,12.32,0,0,0-12.78-12.78H90a12.31,12.31,0,0,0-12.77,12.78V447.8A12.29,12.29,0,0,0,90,460.57h332.1a12.29,12.29,0,0,0,12.77-12.77V345.61A12.43,12.43,0,0,0,431.23,336.43Zm-188,85.82H115.5V371.16H243.23Zm0-102.18H115.5V269H243.23ZM396.5,422.25H281.55V371.16h115ZM502.28,159.6a54.19,54.19,0,0,0-24.35-20L276.76,55.82a51.31,51.31,0,0,0-41.52,0L34.07,139.64a54.19,54.19,0,0,0-24.35,20A52.94,52.94,0,0,0,.54,189.94V447.8a12.29,12.29,0,0,0,12.77,12.77H26.08A12.31,12.31,0,0,0,38.86,447.8V189.94a15,15,0,0,1,2.79-8.78,19.9,19.9,0,0,1,7.59-6.39l200.37-83a13.58,13.58,0,0,1,12.78,0l201.17,83a22.2,22.2,0,0,1,6.79,6.39,15,15,0,0,1,2.79,8.78V447.8a12.31,12.31,0,0,0,12.78,12.77h12.77a12.29,12.29,0,0,0,12.77-12.77V189.94A52.94,52.94,0,0,0,502.28,159.6Z"/></g></svg>