<?xml version="1.0" encoding="UTF-8"?>
<svg width="512px" height="172px" viewBox="0 0 512 172" version="1.1" xmlns="http://www.w3.org/2000/svg" xmlns:xlink="http://www.w3.org/1999/xlink">
    <!-- Generator: Sketch 53.2 (72643) - https://sketchapp.com -->
    <title>alha</title>
    <desc>Created with Sketch.</desc>
    <g id="assets" stroke="none" stroke-width="1" fill="none" fill-rule="evenodd">
        <g id="Artboard" transform="translate(-1060.000000, -1348.000000)" fill="#FEFEFE">
            <path d="M1201.89522,1449.81645 L1160.79736,1490.89754 L1183.06975,1490.89754 L1170.75817,1503.20881 L1209.35809,1503.20881 C1212.02953,1503.20881 1214.21396,1501.03518 1214.21396,1498.36022 L1214.21396,1459.76485 L1201.89522,1472.06896 L1201.89522,1449.81645 Z M1201.89522,1417.58912 L1201.89522,1396.26763 L1214.21396,1408.57532 L1214.21396,1369.97638 C1214.21396,1368.6765 1213.70546,1367.45898 1212.79229,1366.54942 C1211.87555,1365.63628 1210.66158,1365.12778 1209.35809,1365.12778 L1170.75817,1365.12778 L1183.07333,1377.43905 L1161.72877,1377.43905 L1201.89522,1417.58912 Z M1129.53115,1377.43905 L1107.26293,1377.43905 L1119.57093,1365.1242 L1080.97101,1365.1242 C1078.29957,1365.1242 1076.12588,1367.30141 1076.12588,1369.97638 L1076.12588,1408.57532 L1088.43746,1396.26763 L1088.43746,1418.51263 L1129.53115,1377.43905 Z M1088.43746,1448.89303 L1088.43746,1472.06896 L1076.12588,1459.76485 L1076.12588,1498.36022 C1076.12588,1501.03518 1078.31031,1503.20881 1080.98176,1503.20881 L1119.58167,1503.20881 L1107.26293,1490.89754 L1130.45911,1490.89754 L1088.43746,1448.89303 Z M1174.13591,1492.98881 L1149.32847,1517.80321 C1147.275,1519.84584 1143.98148,1519.84584 1141.93161,1517.80321 L1117.13114,1492.98881 L1112.33009,1492.98881 L1124.64525,1505.30724 L1080.98176,1505.30724 C1077.14647,1505.30724 1074.03098,1502.18824 1074.03098,1498.36022 L1074.03098,1454.69782 L1086.33898,1467.00551 L1086.33898,1462.21405 L1061.53143,1437.40302 C1059.4888,1435.35678 1059.4888,1432.06326 1061.53143,1430.01701 L1086.33898,1405.18856 L1086.33898,1401.3275 L1074.0274,1413.64235 L1074.0274,1369.97638 C1074.0274,1366.14477 1077.14647,1363.02935 1080.97101,1363.02935 L1124.63809,1363.02935 L1112.33009,1375.34779 L1116.20066,1375.34779 L1141.93161,1349.61683 C1142.95835,1348.59732 1144.28878,1348.0731 1145.62281,1348.0731 C1146.96408,1348.0731 1148.29812,1348.59732 1149.32847,1349.61683 L1175.05582,1375.34779 L1178.00975,1375.34779 L1165.70175,1363.03294 L1209.35809,1363.03294 C1211.22022,1363.03294 1212.96776,1363.75628 1214.27126,1365.05975 C1215.5855,1366.37395 1216.30528,1368.11429 1216.30528,1369.97638 L1216.30528,1413.63877 L1203.9937,1401.3275 L1203.9937,1404.26399 L1229.72504,1430.01701 C1231.77129,1432.06326 1231.77129,1435.35678 1229.72504,1437.40302 L1203.9937,1463.13797 L1203.9937,1467.00551 L1216.30528,1454.69782 L1216.30528,1498.36022 C1216.30528,1502.18824 1213.19337,1505.30724 1209.35809,1505.30724 L1165.69101,1505.30724 L1177.99901,1492.98881 L1174.13591,1492.98881 Z M1145.60835,1387.82671 C1142.55706,1387.82671 1139.59253,1395.45856 1138.16449,1400.99717 C1136.73284,1406.53939 1138.38503,1422.18993 1138.38503,1422.18993 C1138.38503,1422.18993 1104.43394,1439.46735 1102.19247,1442.12458 C1100.12092,1444.60466 1101.25973,1448.51277 1101.25973,1448.51277 L1139.44792,1439.03351 L1140.71327,1467.48576 C1140.71327,1467.48576 1133.28748,1472.64476 1131.76545,1475.08869 C1130.25788,1477.53623 1131.76545,1479.22457 1131.76545,1479.22457 L1145.62281,1474.79947 L1159.4621,1479.22457 C1159.4621,1479.22457 1160.97329,1477.53623 1159.4621,1475.08869 C1157.94368,1472.64114 1150.50344,1467.48576 1150.50344,1467.48576 L1151.76517,1439.03351 L1189.97144,1448.51277 C1189.97144,1448.51277 1192.03576,1444.93365 1189.03508,1442.12458 C1185.85002,1439.15282 1152.8606,1422.18993 1152.8606,1422.18993 C1152.8606,1422.18993 1154.49109,1406.53939 1153.05221,1400.99717 C1151.62418,1395.45856 1148.65965,1387.82671 1145.60835,1387.82671 Z M1467.53114,1501.09225 C1467.53114,1503.09416 1466.12812,1504.55862 1463.34731,1505.48924 C1461.47901,1506.14933 1459.13462,1506.48839 1456.28168,1506.48839 L1454.49634,1506.48839 C1453.42874,1506.48839 1452.88412,1505.88962 1452.88412,1504.69208 C1452.88412,1503.74703 1453.42874,1503.2709 1454.49634,1503.2709 L1457.60536,1503.2709 C1458.14637,1503.2709 1459.16348,1503.09416 1460.65667,1502.74788 C1462.20397,1502.3475 1463.0227,1501.94351 1463.12008,1501.53591 L1451.34043,1501.53591 C1448.55963,1501.53591 1446.27655,1501.22571 1444.4876,1500.59808 C1441.89074,1499.72518 1440.5851,1498.23908 1440.5851,1496.1542 L1440.5851,1489.69399 C1440.5851,1486.03644 1444.62827,1484.21128 1452.70378,1484.21128 C1452.9274,1484.21128 1453.18709,1484.21128 1453.50448,1484.21849 C1453.81466,1484.22571 1454.18255,1484.23292 1454.61897,1484.24013 C1454.6334,1484.26178 1454.73078,1484.26899 1454.92915,1484.26899 L1456.52333,1484.26899 C1459.08052,1484.26899 1461.41048,1484.60805 1463.48437,1485.27536 C1466.17861,1486.2204 1467.53114,1487.71372 1467.53114,1489.73006 L1467.53114,1501.09225 Z M1463.19943,1498.33647 L1463.19943,1489.89237 C1463.19943,1489.03029 1462.40234,1488.39184 1460.82619,1487.95178 C1459.53137,1487.63076 1458.32671,1487.47565 1457.22665,1487.47565 L1450.44956,1487.47565 C1448.85538,1487.47565 1447.70483,1487.5514 1447.01233,1487.69208 C1445.59488,1488.0095 1444.87713,1488.65155 1444.87713,1489.62185 L1444.87713,1496.10371 C1444.87713,1497.59702 1447.01233,1498.33647 1451.26469,1498.33647 L1463.19943,1498.33647 Z M1482.51359,1486.07973 C1482.51359,1487.0392 1481.8788,1487.50812 1480.59841,1487.50812 C1480.42889,1487.50812 1480.17642,1487.50812 1479.84459,1487.49008 C1479.50195,1487.47565 1479.25309,1487.46123 1479.07636,1487.46123 C1475.77618,1487.46123 1474.13871,1488.19346 1474.13871,1489.65792 L1474.13871,1500.24099 C1474.1315,1500.94436 1473.83575,1501.38081 1473.24424,1501.56477 C1472.99898,1501.64052 1472.37862,1501.67659 1471.37233,1501.67659 C1470.35162,1501.67659 1469.85028,1501.18964 1469.85028,1500.21934 L1469.85028,1489.65792 C1469.85028,1487.38187 1471.15954,1485.83805 1473.77082,1485.02286 C1475.37222,1484.52148 1477.75268,1484.26899 1480.9158,1484.26899 C1481.97979,1484.26899 1482.51359,1484.87497 1482.51359,1486.07973 Z M1511.43253,1496.26602 C1511.43253,1498.2535 1510.33247,1499.70354 1508.13235,1500.62694 C1506.57784,1501.33031 1504.50035,1501.67659 1501.9107,1501.67659 L1494.77294,1501.67659 C1492.41773,1501.67659 1490.28614,1501.31589 1488.37456,1500.59808 C1486.01575,1499.66386 1484.83995,1498.21743 1484.83995,1496.26602 L1484.83995,1489.8563 C1484.83995,1487.91211 1486.00853,1486.43322 1488.35292,1485.42324 C1490.07334,1484.65494 1492.20854,1484.26899 1494.7513,1484.26899 L1501.9107,1484.26899 C1508.25138,1484.26899 1511.43253,1486.1158 1511.43253,1489.82023 L1511.43253,1496.26602 Z M1507.07918,1496.26602 L1507.07918,1489.56053 C1507.07918,1488.18624 1505.31909,1487.49008 1501.78808,1487.49008 L1494.81622,1487.49008 C1493.51779,1487.49008 1492.3492,1487.64158 1491.32849,1487.93375 C1489.85333,1488.35577 1489.12116,1488.99422 1489.12116,1489.8563 L1489.12116,1496.26602 C1489.12116,1497.08482 1489.86776,1497.69802 1491.36095,1498.08397 C1492.3492,1498.33647 1493.51058,1498.46271 1494.84147,1498.46271 L1501.81693,1498.46271 C1502.93142,1498.46271 1503.99901,1498.31482 1505.0089,1498.02626 C1506.37947,1497.63309 1507.07918,1497.04154 1507.07918,1496.26602 Z M1541.68958,1496.48605 C1541.68958,1499.97767 1537.5382,1501.7343 1529.24628,1501.7343 C1529.01545,1501.7343 1528.71969,1501.72709 1528.34459,1501.71987 C1527.98031,1501.71987 1527.55832,1501.70545 1527.0678,1501.69823 C1527.05337,1501.6838 1526.99927,1501.67659 1526.9091,1501.67659 L1524.89293,1501.67659 C1517.92108,1501.67659 1514.44056,1499.94521 1514.44417,1496.48605 L1514.44417,1485.69738 C1514.44056,1484.74151 1514.96715,1484.26899 1516.02032,1484.26899 C1517.0807,1484.26899 1517.69025,1484.30506 1517.8778,1484.38802 C1518.44045,1484.57198 1518.72538,1485.00843 1518.72538,1485.69738 L1518.72538,1496.48605 C1518.72538,1497.80984 1520.78845,1498.46271 1524.89293,1498.46271 L1531.29852,1498.46271 C1535.32005,1498.46271 1537.33262,1497.82427 1537.33262,1496.54016 L1537.33262,1485.69738 C1537.33262,1485.00843 1537.62477,1484.57198 1538.20906,1484.38802 C1538.38579,1484.30506 1539.00976,1484.26899 1540.08096,1484.26899 C1541.14856,1484.26899 1541.68958,1484.74151 1541.68958,1485.69738 L1541.68958,1496.48605 Z M1571.59677,1496.13978 C1571.59677,1499.73239 1568.51299,1501.53591 1562.3202,1501.53591 L1548.94636,1501.53591 L1548.94636,1505.07443 C1548.94636,1505.74894 1548.65421,1506.17818 1548.07713,1506.36214 C1547.89319,1506.4451 1547.28725,1506.48839 1546.25212,1506.48839 C1545.18813,1506.48839 1544.66154,1506.01586 1544.66154,1505.07443 L1544.66154,1489.44149 C1544.66154,1487.32055 1545.77603,1485.8597 1548.02664,1485.04451 C1549.33228,1484.52148 1551.47109,1484.26899 1554.46109,1484.26899 L1561.29227,1484.26899 C1568.15953,1484.26899 1571.59677,1485.97512 1571.59677,1489.39099 L1571.59677,1496.13978 Z M1567.26506,1496.19749 L1567.26506,1489.44149 C1567.26506,1488.51809 1566.47878,1487.92653 1564.89181,1487.64158 C1564.2462,1487.53697 1563.05958,1487.47565 1561.33195,1487.47565 L1554.64142,1487.47565 C1550.84351,1487.47565 1548.94636,1488.15738 1548.94636,1489.53167 L1548.94636,1498.33647 L1562.3202,1498.33647 C1565.61316,1498.33647 1567.26506,1497.62588 1567.26506,1496.19749 Z M1283.86618,1360.02348 C1296.53758,1360.02348 1305.91139,1363.39425 1311.99481,1370.09234 C1318.06022,1376.79043 1321.10193,1387.11996 1321.10193,1401.11354 L1321.10193,1471.2407 L1288.93329,1471.2407 L1288.93329,1445.41505 L1274.53201,1445.41505 L1274.53201,1471.2407 L1242.35616,1471.2407 L1242.35616,1402.23954 C1242.35616,1388.89043 1246.01775,1378.50658 1253.27606,1371.11696 C1260.53076,1363.72372 1270.71545,1360.02348 1283.86618,1360.02348 Z M1534.76064,1360.02348 C1547.43565,1360.02348 1556.82027,1363.39425 1562.88567,1370.09234 C1568.96189,1376.79043 1572,1387.11996 1572,1401.11354 L1572,1471.2407 L1539.83497,1471.2407 L1539.83497,1445.41505 L1525.44089,1445.41505 L1525.44089,1471.2407 L1493.26865,1471.2407 L1493.26865,1402.23954 C1493.26865,1388.89043 1496.91943,1378.50658 1504.17413,1371.11696 C1511.43964,1363.72372 1521.61352,1360.02348 1534.76064,1360.02348 Z M1338.34671,1362.74254 L1370.52256,1362.74254 L1370.52256,1427.18901 C1370.52256,1432.22163 1371.30821,1435.58515 1372.91556,1437.25425 C1374.52652,1438.92334 1377.70158,1439.76331 1382.45876,1439.76331 L1384.14179,1439.76331 L1384.14179,1471.2407 L1375.59689,1471.2407 C1363.86971,1471.2407 1354.71935,1467.81925 1348.17462,1460.96186 C1341.62629,1454.09722 1338.34671,1444.56783 1338.34671,1432.37731 L1338.34671,1362.74254 Z M1395.06169,1362.74254 L1427.23393,1362.74254 L1427.23393,1401.53352 L1441.628,1401.53352 L1441.628,1362.74254 L1473.80385,1362.74254 L1473.80385,1471.2407 L1441.628,1471.2407 L1441.628,1430.15427 L1427.23393,1430.15427 L1427.23393,1471.2407 L1395.06169,1471.2407 L1395.06169,1362.74254 Z M1282.06421,1391.99328 C1277.04755,1391.99328 1274.53201,1395.7442 1274.53201,1403.26779 L1274.53201,1416.79792 L1288.93329,1416.79792 L1288.93329,1403.26779 C1288.93329,1399.02446 1288.41793,1396.0773 1287.41965,1394.43355 C1286.42136,1392.79343 1284.66264,1391.99328 1282.06421,1391.99328 Z M1532.97309,1391.99328 C1527.95643,1391.99328 1525.44089,1395.7442 1525.44089,1403.26779 L1525.44089,1416.79792 L1539.83497,1416.79792 L1539.83497,1403.26779 C1539.83497,1399.02446 1539.32321,1396.0773 1538.31771,1394.43355 C1537.31222,1392.79343 1535.55711,1391.99328 1532.97309,1391.99328 Z" id="Combined-Shape"></path>
        </g>
    </g>
</svg>