<svg id="fc9dbe31-939d-44ae-9717-ce7d36d96b63" data-name="Livello 1" xmlns="http://www.w3.org/2000/svg" xmlns:xlink="http://www.w3.org/1999/xlink" viewBox="0 0 512 512"><defs><clipPath id="a3965115-1d1b-4b6b-bd13-a93f2bed7d5f"><path d="M149.57,327.46H106l12.29-12.29H52.73L65,327.46H21.44a6.94,6.94,0,0,1-6.94-6.93V277l12.29,12.29V223.69L14.5,236V192.4a6.94,6.94,0,0,1,6.93-6.94H65l-12.28,12.3h65.55L106,185.47h43.57a6.91,6.91,0,0,1,6.93,6.93V236l-12.29-12.28v65.55L156.5,277v43.58A6.94,6.94,0,0,1,149.57,327.46ZM111,325.37h38.53a4.85,4.85,0,0,0,4.84-4.84V282l-12.29,12.28V218.64l12.29,12.28V192.4A4.75,4.75,0,0,0,153,189a4.8,4.8,0,0,0-3.42-1.42H111l12.29,12.29H47.67L60,187.55H21.43a4.85,4.85,0,0,0-4.84,4.85v38.52l12.29-12.28v75.65L16.59,282v38.52a4.85,4.85,0,0,0,4.85,4.84H60l-12.3-12.29h75.66Z" style="fill:none;clip-rule:evenodd"/></clipPath><clipPath id="ef1be7b9-b068-4b41-8353-74db716076af"><rect x="-0.5" y="-0.54" width="512" height="512" style="fill:none"/></clipPath><clipPath id="a872563d-a33f-4c39-8047-54cb63affa43"><rect x="0.5" y="170.54" width="170.93" height="170.93" style="fill:none"/></clipPath><clipPath id="b19c44fa-ffe9-46a0-9e04-a2f0eae1dbc6"><rect x="-0.5" y="170.46" width="173" height="172" style="fill:none"/></clipPath><clipPath id="eae2e01e-1e62-472e-aa88-cab301c63323"><path d="M85.94,210.21c3,0,6,7.62,7.43,13.15s-.19,21.15-.19,21.15,32.92,16.93,36.1,19.89a5.28,5.28,0,0,1,.94,6.38l-38.13-9.46-1.26,28.4s7.42,5.14,8.94,7.58a3.43,3.43,0,0,1,0,4.13L86,297l-13.83,4.41a3.43,3.43,0,0,1,0-4.13c1.51-2.44,8.93-7.58,8.93-7.58l-1.27-28.4-38.11,9.46s-1.14-3.9.93-6.38c2.24-2.65,36.12-19.89,36.12-19.89s-1.65-15.62-.22-21.15,4.39-13.15,7.43-13.15m0-39.67a5.22,5.22,0,0,0-3.69,1.54l-25.7,25.69H72L27.73,242V226.6L2,252.32a5.2,5.2,0,0,0,0,7.37l25.7,25.7V270L72,314.21H56.56l25.71,25.73a5.23,5.23,0,0,0,7.38,0l25.72-25.73H100L144.2,270v15.39l25.69-25.7a5.18,5.18,0,0,0,0-7.37L144.2,226.6V242L100,197.77h15.39l-25.7-25.69A5.22,5.22,0,0,0,86,170.54" style="fill:none;clip-rule:evenodd"/></clipPath><clipPath id="b8087371-3b8a-4ae5-9251-54cc880f9695"><rect x="0.5" y="170.46" width="171" height="171" style="fill:none"/></clipPath><clipPath id="ab3f3331-e04a-428b-a7c1-9e7dd51684ea"><rect x="380.34" y="306.41" width="130.76" height="22.23" style="fill:none"/></clipPath><clipPath id="a4ec92bb-c457-493a-93dd-9b752db72252"><rect x="379.5" y="305.46" width="132" height="24" style="fill:none"/></clipPath><clipPath id="b32e76d9-7e40-4976-9f60-b2f5be3c2d5c"><path d="M506.77,318.37v-6.74c0-.92-.78-1.51-2.36-1.8a27.1,27.1,0,0,0-3.56-.16h-6.67c-3.8,0-5.69.68-5.69,2.05v8.79h13.35Q506.78,320.51,506.77,318.37Zm4.33-.06q0,5.38-9.26,5.39H488.49v3.53a1.22,1.22,0,0,1-.87,1.29,7.16,7.16,0,0,1-1.82.12q-1.59,0-1.59-1.41v-15.6q0-3.18,3.36-4.39a19,19,0,0,1,6.43-.77h6.81q10.29,0,10.29,5.11Zm-29.85.35c0,3.48-4.14,5.24-12.42,5.24l-.9,0-1.27,0a.42.42,0,0,0-.16,0h-2q-10.43,0-10.42-5.18V307.89c0-.95.52-1.42,1.57-1.42a6.87,6.87,0,0,1,1.85.12,1.2,1.2,0,0,1,.85,1.3v10.77c0,1.32,2.06,2,6.15,2h6.4c4,0,6-.63,6-1.92V307.89a1.2,1.2,0,0,1,.88-1.3,6.86,6.86,0,0,1,1.86-.12c1.07,0,1.61.47,1.61,1.42Zm-34.54-.22v-6.69c0-1.37-1.76-2.07-5.28-2.07h-7a12.68,12.68,0,0,0-3.48.44c-1.48.43-2.21,1.06-2.21,1.92v6.4c0,.82.75,1.43,2.24,1.81a13.69,13.69,0,0,0,3.47.38h7a11.87,11.87,0,0,0,3.19-.43C446,319.8,446.71,319.21,446.71,318.44Zm4.34,0q0,3-3.29,4.35a15.33,15.33,0,0,1-6.21,1h-7.13a17.94,17.94,0,0,1-6.38-1.08c-2.36-.93-3.53-2.37-3.53-4.32V312q0-2.91,3.51-4.42a15.56,15.56,0,0,1,6.38-1.15h7.15q9.49,0,9.5,5.54Zm-28.86-10.17c0,1-.64,1.43-1.91,1.43-.17,0-.42,0-.76,0l-.76,0c-3.3,0-4.93.73-4.93,2.19v10.57a1.24,1.24,0,0,1-.89,1.32,9.38,9.38,0,0,1-1.87.11c-1,0-1.52-.49-1.52-1.45V311.84c0-2.27,1.31-3.81,3.91-4.62a25.48,25.48,0,0,1,7.13-.75C421.66,306.47,422.19,307.07,422.19,308.27Zm-19.28,12.24v-8.43c0-.86-.79-1.5-2.37-1.94a15,15,0,0,0-3.59-.47h-6.76a19.49,19.49,0,0,0-3.43.21c-1.42.32-2.13,1-2.13,1.93v6.47c0,1.49,2.13,2.23,6.37,2.23Zm4.33,2.75c0,2-1.41,3.46-4.18,4.39a21.62,21.62,0,0,1-7.05,1h-1.78c-1.07,0-1.61-.6-1.61-1.79,0-.94.54-1.42,1.61-1.42h3.1a17.1,17.1,0,0,0,3-.52c1.55-.4,2.37-.8,2.46-1.21H391.08a20.84,20.84,0,0,1-6.84-.94q-3.9-1.31-3.9-4.43v-6.45q0-5.47,12.1-5.47h.8l1.11,0s.11,0,.31,0h1.59a22.57,22.57,0,0,1,6.95,1c2.69.94,4,2.43,4,4.45Z" style="fill:none;clip-rule:evenodd"/></clipPath><clipPath id="f83fcaa2-72a3-431c-9edb-8fc366887d4c"><path d="M472.55,214.37c2.58,0,4.33.8,5.33,2.44s1.52,4.58,1.52,8.81v13.51H465V225.62Q465,214.36,472.55,214.37Zm-250.42,0c2.59,0,4.35.8,5.35,2.44s1.51,4.58,1.51,8.81v13.51H214.61V225.62Q214.61,214.36,222.13,214.37Zm112.78-29.19V293.46H367v-41h14.36v41H413.5V185.18H381.38v38.71H367V185.18Zm-56.61,0v69.5q0,18.24,9.81,28.52t27.37,10.26H324V262.05h-1.68q-7.12,0-9.53-2.51c-1.6-1.66-2.38-5-2.38-10V185.18Zm196-2.72c-13.12,0-23.27,3.7-30.52,11.08s-10.89,17.73-10.89,31.06v68.86H465V267.69H479.4v25.77h32.1v-70q0-20.94-9.1-31T474.33,182.46Zm-250.4,0q-19.69,0-30.53,11.08T182.5,224.6v68.86h32.11V267.69H229v25.77h32.1v-70q0-20.94-9.09-31T223.93,182.46Z" style="fill:none;clip-rule:evenodd"/></clipPath></defs><title>Tavola disegno 1 copia 8</title><g style="clip-path:url(#a3965115-1d1b-4b6b-bd13-a93f2bed7d5f)"><g style="clip-path:url(#ef1be7b9-b068-4b41-8353-74db716076af)"><rect x="9.5" y="180.46" width="152" height="152" style="fill:#fefefe"/></g></g><g style="clip-path:url(#a872563d-a33f-4c39-8047-54cb63affa43)"><g style="clip-path:url(#ef1be7b9-b068-4b41-8353-74db716076af)"><g style="isolation:isolate"><g style="clip-path:url(#b19c44fa-ffe9-46a0-9e04-a2f0eae1dbc6)"><g style="clip-path:url(#eae2e01e-1e62-472e-aa88-cab301c63323)"><g style="clip-path:url(#b8087371-3b8a-4ae5-9251-54cc880f9695)"><rect x="-4.5" y="165.54" width="180.93" height="180.93" style="fill:#fefefe"/></g></g></g></g></g></g><g style="clip-path:url(#ab3f3331-e04a-428b-a7c1-9e7dd51684ea)"><g style="clip-path:url(#ef1be7b9-b068-4b41-8353-74db716076af)"><g style="isolation:isolate"><g style="clip-path:url(#a4ec92bb-c457-493a-93dd-9b752db72252)"><g style="clip-path:url(#b32e76d9-7e40-4976-9f60-b2f5be3c2d5c)"><g style="clip-path:url(#a4ec92bb-c457-493a-93dd-9b752db72252)"><rect x="375.34" y="301.41" width="140.76" height="32.23" style="fill:#fefefe"/></g></g></g></g></g></g><g style="clip-path:url(#f83fcaa2-72a3-431c-9edb-8fc366887d4c)"><g style="clip-path:url(#ef1be7b9-b068-4b41-8353-74db716076af)"><rect x="177.5" y="177.46" width="339" height="121" style="fill:#fefefe"/></g></g></svg>