<?xml version="1.0" encoding="utf-8"?>
<!-- Generator: Adobe Illustrator 23.0.3, SVG Export Plug-In . SVG Version: 6.00 Build 0)  -->
<svg version="1.1" id="Livello_1" xmlns="http://www.w3.org/2000/svg" xmlns:xlink="http://www.w3.org/1999/xlink" x="0px" y="0px"
	 viewBox="0 0 512 172" style="enable-background:new 0 0 512 172;" xml:space="preserve">
<style type="text/css">
	.st0{fill:#015498;}
	.st1{fill:#CBCCCD;}
	.st2{fill:#01509A;}
</style>
<path class="st0" d="M170.5,82.9l-25.4-25.4v15.2l-43.7-43.7h15.2L91.2,3.5c-1-1-2.3-1.5-3.6-1.5c-1.3,0-2.6,0.5-3.7,1.5L58.5,28.9
	h15.2L29.9,72.6V57.4L4.5,82.9c-2,2-2,5.3,0,7.3l25.4,25.4v-15.2l43.7,43.7H58.4l25.4,25.4c2,2,5.3,2,7.3,0l25.4-25.4h-15.2
	l43.7-43.7v15.2l25.4-25.4C172.5,88.1,172.5,84.9,170.5,82.9z M131.1,101.3l-37.7-9.4L92.1,120c0,0,7.3,5.1,8.8,7.5
	c1.5,2.4,0,4.1,0,4.1l-13.7-4.4l-13.7,4.4c0,0-1.5-1.7,0-4.1c1.5-2.4,8.8-7.5,8.8-7.5l-1.3-28.1l-37.7,9.4c0,0-1.1-3.9,0.9-6.3
	c2.2-2.6,35.7-19.7,35.7-19.7S78.5,59.9,80,54.4c1.4-5.5,4.3-13,7.3-13s5.9,7.5,7.3,13c1.4,5.5-0.2,20.9-0.2,20.9S127,92.1,130.2,95
	C133.1,97.8,131.1,101.3,131.1,101.3z"/>
<g>
	<path class="st1" d="M127.3,33.4h-15.2l28.5,28.5V46.7l16.7,16.7V22.6c0-1.6-0.7-3.1-1.7-4.2c-1.1-1.1-2.5-1.7-4.2-1.7h-40.8
		L127.3,33.4z"/>
	<path class="st1" d="M34.4,46.7v15.2l28.5-28.5H47.7l16.7-16.7H23.6c-3.3,0-5.9,2.6-5.9,5.9v40.8L34.4,46.7z"/>
	<path class="st1" d="M140.6,126.3v-15.2l-28.5,28.5h15.2l-16.7,16.7h40.8c3.3,0,5.9-2.6,5.9-5.9v-40.8L140.6,126.3z"/>
	<path class="st1" d="M47.7,139.6h15.2l-28.5-28.5v15.2l-16.7-16.7v40.8c0,3.3,2.6,5.9,5.9,5.9h40.8L47.7,139.6z"/>
</g>
<path class="st2" d="M470.5,48.2c2.6,0,4.3,0.8,5.3,2.4c1,1.6,1.5,4.5,1.5,8.7v13.3h-14.2V59.3C463.1,51.9,465.6,48.2,470.5,48.2
	 M222.2,48.2c2.6,0,4.3,0.8,5.3,2.4c1,1.6,1.5,4.5,1.5,8.7v13.3h-14.2V59.3C214.7,51.9,217.2,48.2,222.2,48.2 M334,19.4v106.9h31.8
	V85.8h14.2v40.5H412V19.4h-31.8v38.2h-14.2V19.4H334z M277.9,19.4V88c0,12,3.2,21.4,9.7,28.2c6.5,6.8,15.5,10.1,27.1,10.1h8.5v-31
	h-1.7c-4.7,0-7.8-0.8-9.4-2.5c-1.6-1.6-2.4-5-2.4-9.9V19.4H277.9z M472.3,16.7c-13,0-23.1,3.6-30.3,10.9
	c-7.2,7.3-10.8,17.5-10.8,30.7v68h31.8v-25.5h14.2v25.5h31.8V57.2c0-13.8-3-24-9-30.6C494.1,20,484.9,16.7,472.3,16.7 M224,16.7
	c-13,0-23.1,3.6-30.3,10.9c-7.2,7.3-10.8,17.5-10.8,30.7v68h31.8v-25.5H229v25.5h31.8V57.2c0-13.8-3-24-9-30.6
	C245.8,20,236.5,16.7,224,16.7"/>
<path class="st2" d="M418.6,154.2c0,2-1.2,3.4-3.7,4.3c-1.6,0.7-3.7,1-6.2,1H407c-0.9,0-1.4-0.6-1.4-1.8c0-0.9,0.5-1.4,1.4-1.4h2.8
	c0.5,0,1.4-0.2,2.7-0.5c1.4-0.4,2.1-0.8,2.2-1.2h-10.4c-2.5,0-4.5-0.3-6.1-0.9c-2.3-0.9-3.4-2.3-3.4-4.4v-6.4
	c0-3.6,3.6-5.4,10.7-5.4c0.2,0,0.4,0,0.7,0c0.3,0,0.6,0,1,0c0,0,0.1,0,0.3,0h0.3h0.5h0.7c2.3,0,4.3,0.3,6.1,1
	c2.4,0.9,3.6,2.4,3.6,4.4V154.2z M414.7,151.4v-8.3c0-0.9-0.7-1.5-2.1-1.9c-1.1-0.3-2.2-0.5-3.2-0.5h-6c-1.4,0-2.4,0.1-3,0.2
	c-1.3,0.3-1.9,0.9-1.9,1.9v6.4c0,1.5,1.9,2.2,5.6,2.2H414.7z"/>
<path class="st2" d="M431.8,139.3c0,0.9-0.6,1.4-1.7,1.4c-0.2,0-0.4,0-0.7,0c-0.3,0-0.5,0-0.7,0c-2.9,0-4.4,0.7-4.4,2.2v10.5
	c0,0.7-0.3,1.1-0.8,1.3c-0.2,0.1-0.8,0.1-1.6,0.1c-0.9,0-1.3-0.5-1.3-1.4v-10.4c0-2.3,1.2-3.8,3.5-4.6c1.4-0.5,3.5-0.8,6.3-0.8
	C431.3,137.5,431.8,138.1,431.8,139.3z"/>
<path class="st2" d="M456.1,149.4c0,2-1,3.4-2.9,4.3c-1.4,0.7-3.2,1-5.5,1h-6.3c-2.1,0-4-0.4-5.7-1.1c-2.1-0.9-3.1-2.4-3.1-4.3V143
	c0-1.9,1-3.4,3.1-4.4c1.5-0.8,3.4-1.1,5.7-1.1h6.3c5.6,0,8.4,1.8,8.4,5.5V149.4z M452.3,149.4v-6.6c0-1.4-1.6-2.1-4.7-2.1h-6.2
	c-1.1,0-2.2,0.1-3.1,0.4c-1.3,0.4-1.9,1-1.9,1.9v6.3c0,0.8,0.7,1.4,2,1.8c0.9,0.3,1.9,0.4,3.1,0.4h6.2c1,0,1.9-0.1,2.8-0.4
	C451.7,150.7,452.3,150.1,452.3,149.4z"/>
<path class="st2" d="M482.8,149.6c0,3.5-3.7,5.2-11,5.2c-0.2,0-0.5,0-0.8,0c-0.3,0-0.7,0-1.1,0c0,0-0.1,0-0.1,0h-0.2h-0.3h-0.5H468
	c-6.2,0-9.2-1.7-9.2-5.1v-10.7c0-0.9,0.5-1.4,1.4-1.4c0.9,0,1.5,0,1.6,0.1c0.5,0.2,0.8,0.6,0.8,1.3v10.7c0,1.3,1.8,2,5.4,2h5.7
	c3.6,0,5.3-0.6,5.3-1.9v-10.7c0-0.7,0.3-1.1,0.8-1.3c0.2-0.1,0.7-0.1,1.6-0.1c1,0,1.4,0.5,1.4,1.4V149.6z"/>
<path class="st2" d="M509.2,149.2c0,3.6-2.7,5.3-8.2,5.3h-11.8v3.5c0,0.7-0.3,1.1-0.8,1.3c-0.2,0.1-0.7,0.1-1.6,0.1
	c-0.9,0-1.4-0.5-1.4-1.4v-15.5c0-2.1,1-3.5,3-4.3c1.1-0.5,3-0.8,5.7-0.8h6c6.1,0,9.1,1.7,9.1,5.1V149.2z M505.4,149.3v-6.7
	c0-0.9-0.7-1.5-2.1-1.8c-0.6-0.1-1.6-0.2-3.1-0.2h-5.9c-3.4,0-5,0.7-5,2v8.7H501C503.9,151.4,505.4,150.7,505.4,149.3z"/>
</svg>
