<svg height="700pt" preserveAspectRatio="xMidYMid meet" viewBox="0 0 700 700" width="700pt" xmlns="http://www.w3.org/2000/svg"><g transform="matrix(.1 0 0 -.1 0 700)"><path d="m3422 6522c-23-12-962-937-962-947 0-1 122-1 270-1 149 1 270 0 270 0 0-2-1549-1551-1562-1562-11-8-13 43-12 259 0 148-1 268-3 266-1-1-210-209-464-462-256-255-469-477-480-497-24-48-24-119 0-166 11-20 228-245 483-500l464-463v261c-1 144 1 265 4 269s357-345 787-776c431-431 777-783 770-784-6 0-126 0-264-1-139 0-253-3-253-7 0-3 208-214 463-468 317-318 474-467 499-478 51-20 104-19 152 5 27 13 202 180 505 484l464 464h-267c-147 0-269 2-271 3-2 2 350 357 781 788 700 700 784 781 785 755 0-16 1-136 1-266 1-131 4-238 7-238s214 208 468 463c318 317 467 474 478 499 19 48 19 97-1 147-11 29-129 151-449 467-238 236-450 446-472 467l-39 37v-265c1-146-2-265-5-265-6 0-1505 1495-1551 1546-16 19-10 19 248 18 145 0 264 3 264 6 0 15-931 936-957 947-40 17-113 15-151-5z"/><path d="m992 6148c-58-22-109-71-135-128-20-44-20-61-21-883-1-461 1-844 4-852 3-9 125 105 339 316 184 181 337 325 340 320s6-140 5-300c0-290 0-291 20-273 25 22 1136 1132 1136 1136 0 1-131 2-291 2-160-1-295 2-300 5s139 153 320 334c182 181 328 331 325 334s-386 6-851 6c-776 0-850-1-891-17z"/><path d="m4270 6160c0-3 150-157 334-342 186-189 326-338 317-339-9 0-145-1-303-1-159-1-288-3-288-4 0-4 1108-1112 1136-1136 20-18 20-17 20 287l-1 305 43-43c24-23 174-173 335-334 160-161 294-288 297-283 6 9 4 1686-2 1710-17 67-66 124-137 161l-45 23-853 1c-469 0-853-2-853-5z"/><path d="m845 1877c1-838 1-853 22-897 26-57 66-98 123-123 44-20 64-20 875-21 457-1 841 1 854 3 20 3-24 51-318 345l-341 341 305-1c168 0 305 1 305 3 0 4-1139 1143-1143 1143-2 0-3-133-3-296 1-163-2-297-5-299s-153 144-335 326c-181 181-331 329-334 329s-5-384-5-853z"/><path d="m5825 2400c-181-181-331-327-334-325s-6 136-5 299c0 163-2 296-4 296-5 0-1152-1146-1152-1151 0-3 135-4 300-4s300-2 300-5-148-153-329-334c-182-182-328-332-326-335s385-6 852-5c936 1 881-3 958 65 21 19 47 54 58 79 20 44 20 67 21 893 1 467-2 850-5 852s-153-144-334-325z"/></g></svg>