<?xml version="1.0" standalone="no"?>
<!DOCTYPE svg PUBLIC "-//W3C//DTD SVG 20010904//EN"
 "http://www.w3.org/TR/2001/REC-SVG-20010904/DTD/svg10.dtd">
<svg version="1.0" xmlns="http://www.w3.org/2000/svg"
 width="700.000000pt" height="700.000000pt" viewBox="0 0 700.000000 700.000000"
 preserveAspectRatio="xMidYMid meet">
<metadata>
Created by potrace 1.11, written by Peter Selinger 2001-2013
</metadata>
<g transform="translate(0.000000,700.000000) scale(0.100000,-0.100000)"
fill="#000000" stroke="none">
<path d="M1120 4422 c-94 -93 -170 -171 -170 -173 0 -3 41 -5 90 -4 50 1 90
-1 90 -4 0 -4 -125 -131 -278 -284 l-278 -278 1 95 c0 53 -1 96 -4 96 -3 0
-80 -76 -173 -170 -144 -146 -168 -174 -168 -200 0 -27 23 -55 169 -201 124
-124 170 -164 173 -151 2 9 3 50 3 90 0 39 2 72 5 72 7 0 550 -544 550 -551 0
-3 -40 -5 -90 -4 -49 1 -90 0 -90 -3 0 -3 76 -81 170 -174 182 -181 192 -187
246 -145 59 45 322 316 311 319 -7 3 -47 4 -89 3 -43 0 -78 2 -78 5 0 7 544
550 551 550 3 0 5 -41 4 -91 l-3 -90 26 23 c14 13 92 90 174 172 123 124 148
153 148 178 0 24 -27 57 -169 199 -99 100 -170 165 -173 157 -2 -7 -3 -48 -3
-90 1 -43 -1 -78 -5 -78 -7 0 -550 544 -550 551 0 3 41 5 90 4 50 -1 90 -1 90
1 0 1 -77 79 -171 173 -143 143 -176 171 -200 171 -25 0 -57 -28 -199 -168z
m276 -446 c24 -63 27 -82 26 -181 -1 -60 -3 -119 -5 -129 -1 -15 14 -28 63
-54 205 -109 365 -200 387 -220 17 -15 23 -31 21 -50 -4 -36 10 -37 -266 32
-100 26 -192 47 -204 49 -23 2 -21 19 -31 -223 l-6 -135 59 -48 c44 -35 60
-54 60 -72 0 -31 -1 -31 -99 0 l-81 26 -86 -27 c-127 -38 -137 -11 -30 80 l54
47 -4 67 c-12 245 -14 285 -18 289 -3 3 -19 0 -38 -6 -18 -6 -118 -32 -223
-57 -104 -24 -198 -47 -207 -50 -25 -8 -24 50 1 75 25 25 117 79 291 169 80
41 149 79 154 83 5 5 9 66 8 136 -1 109 2 138 21 192 12 35 35 78 50 94 l28
30 24 -23 c13 -13 37 -55 51 -94z"/>
<path d="M455 4392 c-14 -7 -28 -24 -31 -39 -6 -20 -9 -464 -5 -533 1 -8 48
32 106 90 l105 105 1 -43 c0 -23 1 -67 2 -98 l0 -55 184 183 183 183 -95 5
-95 5 53 52 c28 28 75 75 104 105 l52 53 -270 0 c-200 0 -276 -3 -294 -13z"/>
<path d="M1620 4402 c0 -2 47 -50 105 -107 57 -57 99 -105 92 -107 -7 -2 -49
-3 -95 -3 l-83 1 183 -183 c101 -101 184 -183 186 -183 1 0 1 41 0 90 -2 50 0
90 5 90 4 0 52 -45 107 -100 55 -55 100 -97 101 -93 0 5 1 129 1 276 l1 268
-25 25 -25 25 -276 2 c-153 1 -277 0 -277 -1z"/>
<path d="M2912 4379 c-92 -23 -138 -47 -204 -108 -82 -75 -131 -178 -146 -306
-3 -27 -6 -259 -6 -515 l-1 -465 195 -1 c107 0 200 1 206 3 6 2 10 59 9 159 0
86 2 159 5 163 3 4 44 7 93 7 l87 -1 0 -165 0 -165 205 0 c198 0 205 1 206 20
3 136 -1 943 -6 980 -29 229 -120 348 -306 395 -92 24 -241 23 -337 -1z m215
-416 c12 -18 17 -56 19 -153 l3 -128 -93 0 -94 -1 3 117 c1 74 7 128 16 146
26 55 115 67 146 19z"/>
<path d="M6136 4383 c-115 -26 -216 -91 -275 -177 -41 -59 -78 -155 -87 -223
-7 -57 -13 -954 -6 -983 3 -14 32 -16 205 -15 l202 0 2 130 c0 72 2 146 2 166
l1 35 90 0 c83 -1 90 -3 91 -21 0 -11 1 -85 2 -165 l2 -145 203 0 c130 0 202
3 203 10 0 5 1 229 1 497 0 522 -4 571 -54 685 -27 62 -101 139 -162 170 -98
50 -289 66 -420 36z m202 -421 c12 -19 17 -54 19 -152 l3 -127 -92 1 -93 1 1
110 c1 132 18 180 68 193 44 12 75 3 94 -26z"/>
<path d="M3785 3868 c3 -542 3 -546 58 -654 75 -148 213 -223 419 -227 l103
-2 0 200 0 199 -45 4 c-25 2 -56 9 -70 15 -53 26 -54 35 -55 517 l0 445 -207
3 -206 2 3 -502z"/>
<path d="M4510 3677 l0 -692 205 0 205 0 0 263 0 263 92 -3 93 -3 -1 -257 c0
-224 2 -257 15 -260 9 -2 102 -4 206 -3 l190 0 0 690 0 690 -205 0 -205 0 -1
-240 c-1 -132 -2 -242 -3 -245 -1 -3 -40 -5 -88 -5 l-88 0 -3 248 -2 247 -205
0 -205 0 0 -693z"/>
<path d="M415 2932 c1 -147 4 -276 8 -288 13 -39 44 -43 324 -44 l268 -1 -60
62 c-33 34 -79 80 -103 102 -24 22 -38 43 -33 47 6 3 44 5 86 4 41 -1 77 1 80
5 2 4 -77 88 -176 187 l-179 179 0 -99 0 -99 -74 74 c-40 41 -89 89 -107 106
l-34 32 0 -267z"/>
<path d="M2116 3092 c-55 -56 -102 -99 -104 -97 -3 2 -4 46 -3 97 l2 93 -186
-185 -185 -185 96 -5 96 -5 -69 -66 c-37 -37 -85 -84 -105 -105 l-38 -39 268
1 c147 0 277 4 288 8 40 13 44 46 42 325 l-3 264 -99 -101z"/>
<path d="M6537 2839 c-64 -10 -71 -24 -72 -146 -2 -124 0 -133 26 -133 14 0
19 7 19 30 l0 30 93 2 c165 2 171 7 169 122 -1 32 -6 64 -12 71 -21 26 -139
38 -223 24z m172 -48 c14 -9 20 -106 7 -119 -4 -4 -51 -7 -104 -7 l-97 0 0 59
c0 49 3 60 20 67 27 11 157 11 174 0z"/>
<path d="M5352 2826 c-48 -14 -64 -44 -60 -112 4 -81 26 -96 147 -98 49 -1 93
-5 97 -9 4 -4 1 -8 -7 -8 -84 -7 -105 -15 -90 -33 23 -27 145 0 156 34 8 27 4
160 -6 188 -5 12 -21 27 -36 33 -36 15 -158 18 -201 5z m187 -42 c11 -11 14
-33 12 -89 l-1 -40 -92 3 c-51 1 -99 4 -105 7 -20 7 -17 112 4 123 21 12 170
9 182 -4z"/>
<path d="M5685 2833 c-44 -11 -52 -29 -54 -124 -2 -89 -2 -90 21 -87 22 3 23
8 26 82 1 44 4 81 6 83 5 6 35 11 64 12 15 1 22 7 22 21 0 16 -6 20 -32 19
-18 -1 -42 -4 -53 -6z"/>
<path d="M5855 2831 c-44 -13 -58 -29 -64 -72 -16 -118 9 -142 151 -143 73 0
93 3 115 21 26 19 28 25 28 94 0 71 -1 74 -29 87 -29 15 -165 23 -201 13z
m175 -51 c12 -19 6 -98 -8 -112 -12 -12 -135 -15 -170 -4 -19 6 -22 15 -22 62
0 47 3 56 23 63 35 14 167 7 177 -9z"/>
<path d="M6127 2833 c-2 -4 -4 -45 -3 -91 2 -60 7 -87 18 -99 35 -34 231 -31
270 4 16 14 18 29 16 102 -3 78 -5 86 -23 86 -18 0 -20 -8 -23 -81 -3 -75 -5
-82 -25 -88 -29 -8 -116 -8 -155 0 l-31 6 -3 82 c-2 66 -6 81 -20 84 -9 2 -18
-1 -21 -5z"/>
</g>
</svg>
